<svg version="1.1" id="Layer_1" xmlns="http://www.w3.org/2000/svg" xmlns:xlink="http://www.w3.org/1999/xlink" x="0px" y="0px"
	 width="100%" viewBox="0 0 512 512" enable-background="new 0 0 512 512" xml:space="preserve">
<path fill="#FFFFFF" opacity="1.000000" stroke="none" 
	d="
M513.000000,323.000000 
	C513.000000,386.302277 513.000000,449.604523 513.000000,512.953369 
	C342.448120,512.953369 171.896255,512.953369 1.000000,512.953369 
	C1.000000,449.979523 1.000000,386.958435 1.379184,323.592041 
	C6.727555,349.539673 28.149918,367.578827 55.546040,368.729187 
	C70.850945,369.371857 86.205368,368.835083 102.027954,368.903809 
	C105.017906,368.984833 107.521614,368.903320 110.015671,369.023041 
	C112.661263,369.150024 114.023590,368.297211 114.060715,365.375305 
	C114.093735,362.776489 114.721832,360.190460 114.986641,357.588531 
	C116.609581,341.641937 121.906242,326.692810 129.283524,312.757965 
	C139.091476,294.231812 152.284698,278.197113 169.120728,265.330902 
	C194.315628,246.076767 222.859055,236.266983 254.362457,235.138000 
	C261.854980,234.869492 269.411224,236.306198 276.934875,236.994492 
	C290.537262,238.238876 303.336273,242.350632 315.709381,247.948746 
	C337.285309,257.710571 355.495453,271.729065 370.052612,290.503845 
	C385.442383,310.352509 395.448242,332.463135 399.027527,357.405151 
	C400.758392,369.466431 400.812042,369.458740 412.901489,368.838989 
	C430.585541,368.542450 447.895599,369.059845 465.055969,367.695038 
	C481.606110,366.378784 494.897797,357.812653 503.718842,343.635559 
	C507.667633,337.289062 509.957367,329.910309 513.000000,323.000000 
M137.071350,405.476624 
	C140.495071,415.590393 142.683914,426.358185 147.617065,435.672516 
	C156.109253,451.706604 167.465866,465.609100 182.197159,476.932495 
	C200.679077,491.138763 221.358597,499.441376 244.121368,501.671967 
	C263.721619,503.592651 283.243225,501.521759 301.878784,493.989227 
	C316.761871,487.973572 329.973114,479.445831 341.712006,468.612732 
	C346.880371,463.843170 347.372192,456.878387 343.271637,451.902039 
	C339.581024,447.423218 331.307739,446.484833 326.846436,450.597870 
	C322.026825,455.041260 317.007812,459.458099 311.458771,462.888458 
	C285.121857,479.169678 257.030060,483.798370 227.177032,474.233215 
	C197.118576,464.602173 176.489014,444.660553 164.289917,415.809418 
	C159.282593,403.967010 157.076797,391.309723 157.242142,378.637329 
	C157.399811,366.552856 159.671524,354.589447 164.262192,343.105499 
	C169.720261,329.451721 177.765991,317.592316 188.158981,307.488800 
	C196.496628,299.383423 206.303864,293.024689 217.095703,288.432220 
	C237.265793,279.848846 258.172943,277.218414 279.557983,282.316467 
	C300.518158,287.313202 318.049133,298.152679 332.295990,314.615692 
	C352.081818,337.479309 359.098846,364.015686 355.766083,393.473907 
	C355.172241,398.722687 352.605713,405.353119 348.669769,408.303772 
	C338.744202,415.744568 319.946045,414.047821 316.022552,397.753357 
	C314.243256,390.363892 313.606262,382.649200 312.999756,375.038300 
	C311.842773,360.519684 306.163483,347.951050 295.861206,338.025360 
	C287.361542,329.836395 276.967590,324.858734 264.835846,323.024323 
	C246.277664,320.218231 230.503281,325.570496 217.178604,337.899536 
	C204.635590,349.505371 199.415024,364.361847 200.145554,381.597687 
	C200.925034,399.988129 209.120010,414.123444 223.569290,424.774231 
	C234.705048,432.982544 247.347488,436.173187 261.295502,435.119720 
	C269.546478,434.496552 277.207611,432.559845 284.134949,428.268463 
	C289.467743,424.964813 294.376312,420.976318 299.554047,417.234161 
	C303.475067,424.492950 309.856018,429.175049 317.760071,432.381622 
	C324.908020,435.281372 332.132874,435.277863 339.608063,435.046967 
	C357.979462,434.479614 370.606995,424.263336 375.881165,408.217194 
	C380.190796,395.105377 380.434998,381.680725 379.185364,367.925964 
	C377.768799,352.333496 373.773285,337.541779 366.765625,323.834045 
	C358.848114,308.346558 348.087189,294.824646 334.295105,283.814087 
	C315.803589,269.051880 294.787537,259.906525 271.511688,257.337799 
	C255.163147,255.533585 238.434555,256.234863 222.497559,261.374207 
	C182.873444,274.152130 154.967133,299.616150 141.245438,339.261658 
	C137.816956,349.167450 136.915771,359.955963 134.945374,370.356262 
	C132.751450,381.936493 134.897476,393.279297 137.071350,405.476624 
z"/>
<path fill="#020200" opacity="1.000000" stroke="none" 
	d="
M513.000000,322.531342 
	C509.957367,329.910309 507.667633,337.289062 503.718842,343.635559 
	C494.897797,357.812653 481.606110,366.378784 465.055969,367.695038 
	C447.895599,369.059845 430.585541,368.542450 412.637115,368.566040 
	C405.408173,366.421021 402.339233,363.300903 401.935852,358.119751 
	C401.381012,350.993134 406.327179,346.096527 414.504608,346.034576 
	C428.438446,345.929047 442.374084,346.067444 456.308167,345.978912 
	C465.781494,345.918701 474.204254,343.090729 481.113922,335.776794 
	C488.145081,328.619507 490.810608,320.051819 490.814423,310.577820 
	C490.846649,230.281540 490.863342,149.985229 490.782501,69.689034 
	C490.774902,62.143105 489.435272,54.794193 484.186523,48.410439 
	C476.501434,37.757069 465.893585,34.272552 453.576233,34.276119 
	C333.783875,34.310806 213.991547,34.296791 94.199196,34.296791 
	C82.536522,34.296791 70.873199,34.221287 59.211342,34.319286 
	C47.105804,34.421021 36.678951,38.118114 29.389004,48.942963 
	C24.722700,55.376133 23.195318,62.474880 23.191669,69.910065 
	C23.152262,150.192856 23.136478,230.475708 23.207811,310.758453 
	C23.216341,320.356445 25.784212,329.156708 33.316055,336.234985 
	C40.879459,343.534149 49.799400,346.190552 59.868137,346.048523 
	C72.652771,345.868164 85.442009,345.976501 98.228920,346.035095 
	C100.197403,346.044098 102.231735,346.207001 104.118309,346.725525 
	C108.955254,348.054901 111.676620,351.370209 112.056137,356.379578 
	C112.438461,361.425903 110.014847,364.951965 105.608421,367.181732 
	C104.306755,367.840393 102.897446,368.286316 101.537476,368.829742 
	C86.205368,368.835083 70.850945,369.371857 55.546040,368.729187 
	C28.149918,367.578827 6.727555,349.539673 1.379184,323.123413 
	C1.000000,234.645767 1.000000,146.291550 1.379632,57.348885 
	C5.965318,32.012135 29.307869,12.160624 53.955189,12.137836 
	C188.949112,12.013030 323.943237,12.021623 458.937225,12.122799 
	C477.192108,12.136480 492.048676,20.045753 502.468292,34.828915 
	C507.113525,41.419533 509.557159,49.561901 513.000000,56.999996 
	C513.000000,145.354233 513.000000,233.708450 513.000000,322.531342 
z"/>
<path fill="#FFFFFF" opacity="1.000000" stroke="none" 
	d="
M513.000000,56.531338 
	C509.557159,49.561901 507.113525,41.419533 502.468292,34.828915 
	C492.048676,20.045753 477.192108,12.136480 458.937225,12.122799 
	C323.943237,12.021623 188.949112,12.013030 53.955189,12.137836 
	C29.307869,12.160624 5.965318,32.012135 1.379632,56.880226 
	C1.000000,38.346420 1.000000,19.692841 1.000002,1.044990 
	C171.666672,1.050721 342.333344,1.050721 513.000000,1.050721 
	C513.000000,19.421856 513.000000,37.742268 513.000000,56.531338 
z"/>
<path fill="#030404" opacity="1.000000" stroke="none" 
	d="
M137.042755,405.044525 
	C134.897476,393.279297 132.751450,381.936493 134.945374,370.356262 
	C136.915771,359.955963 137.816956,349.167450 141.245438,339.261658 
	C154.967133,299.616150 182.873444,274.152130 222.497559,261.374207 
	C238.434555,256.234863 255.163147,255.533585 271.511688,257.337799 
	C294.787537,259.906525 315.803589,269.051880 334.295105,283.814087 
	C348.087189,294.824646 358.848114,308.346558 366.765625,323.834045 
	C373.773285,337.541779 377.768799,352.333496 379.185364,367.925964 
	C380.434998,381.680725 380.190796,395.105377 375.881165,408.217194 
	C370.606995,424.263336 357.979462,434.479614 339.608063,435.046967 
	C332.132874,435.277863 324.908020,435.281372 317.760071,432.381622 
	C309.856018,429.175049 303.475067,424.492950 299.554047,417.234161 
	C294.376312,420.976318 289.467743,424.964813 284.134949,428.268463 
	C277.207611,432.559845 269.546478,434.496552 261.295502,435.119720 
	C247.347488,436.173187 234.705048,432.982544 223.569290,424.774231 
	C209.120010,414.123444 200.925034,399.988129 200.145554,381.597687 
	C199.415024,364.361847 204.635590,349.505371 217.178604,337.899536 
	C230.503281,325.570496 246.277664,320.218231 264.835846,323.024323 
	C276.967590,324.858734 287.361542,329.836395 295.861206,338.025360 
	C306.163483,347.951050 311.842773,360.519684 312.999756,375.038300 
	C313.606262,382.649200 314.243256,390.363892 316.022552,397.753357 
	C319.946045,414.047821 338.744202,415.744568 348.669769,408.303772 
	C352.605713,405.353119 355.172241,398.722687 355.766083,393.473907 
	C359.098846,364.015686 352.081818,337.479309 332.295990,314.615692 
	C318.049133,298.152679 300.518158,287.313202 279.557983,282.316467 
	C258.172943,277.218414 237.265793,279.848846 217.095703,288.432220 
	C206.303864,293.024689 196.496628,299.383423 188.158981,307.488800 
	C177.765991,317.592316 169.720261,329.451721 164.262192,343.105499 
	C159.671524,354.589447 157.399811,366.552856 157.242142,378.637329 
	C157.076797,391.309723 159.282593,403.967010 164.289917,415.809418 
	C176.489014,444.660553 197.118576,464.602173 227.177032,474.233215 
	C257.030060,483.798370 285.121857,479.169678 311.458771,462.888458 
	C317.007812,459.458099 322.026825,455.041260 326.846436,450.597870 
	C331.307739,446.484833 339.581024,447.423218 343.271637,451.902039 
	C347.372192,456.878387 346.880371,463.843170 341.712006,468.612732 
	C329.973114,479.445831 316.761871,487.973572 301.878784,493.989227 
	C283.243225,501.521759 263.721619,503.592651 244.121368,501.671967 
	C221.358597,499.441376 200.679077,491.138763 182.197159,476.932495 
	C167.465866,465.609100 156.109253,451.706604 147.617065,435.672516 
	C142.683914,426.358185 140.495071,415.590393 137.042755,405.044525 
M261.146210,412.044708 
	C273.821442,409.876862 282.658752,402.927521 287.594452,390.994629 
	C293.848572,375.874176 286.002350,358.270477 272.919067,350.813995 
	C260.802002,343.908112 242.224564,345.976349 232.453873,357.877777 
	C221.478256,371.246887 221.302292,387.491974 232.310089,400.788483 
	C239.440826,409.401794 249.035187,412.975281 261.146210,412.044708 
z"/>
<path fill="#FEA000" opacity="1.000000" stroke="none" 
	d="
M102.027954,368.903809 
	C102.897446,368.286316 104.306755,367.840393 105.608421,367.181732 
	C110.014847,364.951965 112.438461,361.425903 112.056137,356.379578 
	C111.676620,351.370209 108.955254,348.054901 104.118309,346.725525 
	C102.231735,346.207001 100.197403,346.044098 98.228920,346.035095 
	C85.442009,345.976501 72.652771,345.868164 59.868137,346.048523 
	C49.799400,346.190552 40.879459,343.534149 33.595127,336.078308 
	C38.511936,330.390930 43.284893,325.160950 48.360428,320.106110 
	C55.673485,325.358276 60.066391,324.979492 66.558479,318.493988 
	C102.217262,282.871338 137.854370,247.226974 173.483353,211.574509 
	C180.132767,204.920715 180.557083,201.193954 176.091080,192.962952 
	C180.937897,187.913849 185.468109,183.009750 190.322311,178.187378 
	C200.490891,185.382294 210.335251,192.495789 220.180084,199.608643 
	C244.645309,217.284729 269.351013,217.218460 293.948090,199.482346 
	C303.921906,192.290558 313.975647,185.209641 324.033783,178.417480 
	C328.787872,183.538803 333.501221,188.320923 338.083313,193.442368 
	C333.507507,200.696243 333.910980,204.980865 339.939789,211.018463 
	C375.791168,246.922180 411.669037,282.799500 447.570770,318.652893 
	C453.987000,325.060486 458.536591,325.297882 465.993469,320.277588 
	C470.967560,325.730133 475.890656,330.835022 480.813751,335.939911 
	C474.204254,343.090729 465.781494,345.918701 456.308167,345.978912 
	C442.374084,346.067444 428.438446,345.929047 414.504608,346.034576 
	C406.327179,346.096527 401.381012,350.993134 401.935852,358.119751 
	C402.339233,363.300903 405.408173,366.421021 412.197632,368.556763 
	C400.812042,369.458740 400.758392,369.466431 399.027527,357.405151 
	C395.448242,332.463135 385.442383,310.352509 370.052612,290.503845 
	C355.495453,271.729065 337.285309,257.710571 315.709381,247.948746 
	C303.336273,242.350632 290.537262,238.238876 276.934875,236.994492 
	C269.411224,236.306198 261.854980,234.869492 254.362457,235.138000 
	C222.859055,236.266983 194.315628,246.076767 169.120728,265.330902 
	C152.284698,278.197113 139.091476,294.231812 129.283524,312.757965 
	C121.906242,326.692810 116.609581,341.641937 114.986641,357.588531 
	C114.721832,360.190460 114.093735,362.776489 114.060715,365.375305 
	C114.023590,368.297211 112.661263,369.150024 110.015671,369.023041 
	C107.521614,368.903320 105.017906,368.984833 102.027954,368.903809 
z"/>
<path fill="#FED44F" opacity="1.000000" stroke="none" 
	d="
M29.681808,48.750530 
	C36.678951,38.118114 47.105804,34.421021 59.211342,34.319286 
	C70.873199,34.221287 82.536522,34.296791 94.199196,34.296791 
	C213.991547,34.296791 333.783875,34.310806 453.576233,34.276119 
	C465.893585,34.272552 476.501434,37.757069 483.825928,48.503944 
	C477.956329,53.042366 472.332001,57.169163 466.406006,61.135017 
	C459.807343,55.316101 455.652771,55.256550 447.930969,60.832405 
	C392.333862,100.978424 336.751404,141.144775 281.135864,181.265289 
	C278.181030,183.396866 275.146576,185.569458 271.845825,187.043747 
	C258.029633,193.214767 245.467453,190.468353 233.464020,181.766891 
	C177.806885,141.420258 122.036903,101.229263 66.302040,60.989864 
	C58.246189,55.173714 54.695225,55.252789 47.055878,61.016457 
	C41.129021,56.729794 35.405415,52.740162 29.681808,48.750530 
z"/>
<path fill="#FEC007" opacity="1.000000" stroke="none" 
	d="
M466.707703,61.295959 
	C472.332001,57.169163 477.956329,53.042366 483.941223,48.822067 
	C489.435272,54.794193 490.774902,62.143105 490.782501,69.689034 
	C490.863342,149.985229 490.846649,230.281540 490.814423,310.577820 
	C490.810608,320.051819 488.145081,328.619507 481.113922,335.776794 
	C475.890656,330.835022 470.967560,325.730133 466.092072,319.907532 
	C470.209076,313.529358 467.892853,307.297424 462.952484,302.385773 
	C427.308319,266.948669 391.820221,231.354630 356.272369,195.820618 
	C349.739685,189.290482 346.212250,188.785248 338.214539,193.103043 
	C333.501221,188.320923 328.787872,183.538803 324.226898,178.137085 
	C369.829590,144.692902 415.281403,111.870361 460.728851,79.041779 
	C468.570618,73.377350 469.651947,70.129211 466.707703,61.295959 
z"/>
<path fill="#FEC007" opacity="1.000000" stroke="none" 
	d="
M29.389004,48.942963 
	C35.405415,52.740162 41.129021,56.729794 46.992447,61.415279 
	C44.391346,69.447128 45.620983,73.474991 52.331165,78.334244 
	C75.219849,94.909325 98.158661,111.415199 121.042328,127.997185 
	C144.050064,144.669067 167.014771,161.400375 189.998322,178.105652 
	C185.468109,183.009750 180.937897,187.913849 175.748032,192.873642 
	C168.407654,188.862808 164.157669,189.382172 158.274734,195.259903 
	C122.353752,231.149002 86.452370,267.057709 50.569431,302.984863 
	C44.865307,308.696045 44.335171,312.742188 48.057846,319.930969 
	C43.284893,325.160950 38.511936,330.390930 33.459908,335.777588 
	C25.784212,329.156708 23.216341,320.356445 23.207811,310.758453 
	C23.136478,230.475708 23.152262,150.192856 23.191669,69.910065 
	C23.195318,62.474880 24.722700,55.376133 29.389004,48.942963 
z"/>
<path fill="#FFFFFF" opacity="1.000000" stroke="none" 
	d="
M260.687988,412.049744 
	C249.035187,412.975281 239.440826,409.401794 232.310089,400.788483 
	C221.302292,387.491974 221.478256,371.246887 232.453873,357.877777 
	C242.224564,345.976349 260.802002,343.908112 272.919067,350.813995 
	C286.002350,358.270477 293.848572,375.874176 287.594452,390.994629 
	C282.658752,402.927521 273.821442,409.876862 260.687988,412.049744 
z"/>
<path fill="#030200" opacity="1.000000" stroke="none" 
	d="
M190.322311,178.187378 
	C167.014771,161.400375 144.050064,144.669067 121.042328,127.997185 
	C98.158661,111.415199 75.219849,94.909325 52.331165,78.334244 
	C45.620983,73.474991 44.391346,69.447128 47.195694,61.712311 
	C54.695225,55.252789 58.246189,55.173714 66.302040,60.989864 
	C122.036903,101.229263 177.806885,141.420258 233.464020,181.766891 
	C245.467453,190.468353 258.029633,193.214767 271.845825,187.043747 
	C275.146576,185.569458 278.181030,183.396866 281.135864,181.265289 
	C336.751404,141.144775 392.333862,100.978424 447.930969,60.832405 
	C455.652771,55.256550 459.807343,55.316101 466.406006,61.135021 
	C469.651947,70.129211 468.570618,73.377350 460.728851,79.041779 
	C415.281403,111.870361 369.829590,144.692902 324.186157,177.797882 
	C313.975647,185.209641 303.921906,192.290558 293.948090,199.482346 
	C269.351013,217.218460 244.645309,217.284729 220.180084,199.608643 
	C210.335251,192.495789 200.490891,185.382294 190.322311,178.187378 
z"/>
<path fill="#050300" opacity="1.000000" stroke="none" 
	d="
M48.360424,320.106110 
	C44.335171,312.742188 44.865307,308.696045 50.569431,302.984863 
	C86.452370,267.057709 122.353752,231.149002 158.274734,195.259903 
	C164.157669,189.382172 168.407654,188.862808 175.431427,193.018646 
	C180.557083,201.193954 180.132767,204.920715 173.483353,211.574509 
	C137.854370,247.226974 102.217262,282.871338 66.558479,318.493988 
	C60.066391,324.979492 55.673485,325.358276 48.360424,320.106110 
z"/>
<path fill="#050300" opacity="1.000000" stroke="none" 
	d="
M338.083313,193.442368 
	C346.212250,188.785248 349.739685,189.290482 356.272369,195.820618 
	C391.820221,231.354630 427.308319,266.948669 462.952484,302.385773 
	C467.892853,307.297424 470.209076,313.529358 466.041077,319.559845 
	C458.536591,325.297882 453.987000,325.060486 447.570770,318.652893 
	C411.669037,282.799500 375.791168,246.922180 339.939789,211.018463 
	C333.910980,204.980865 333.507507,200.696243 338.083313,193.442368 
z"/>
</svg>