<svg version="1.1" id="Layer_1" xmlns="http://www.w3.org/2000/svg" xmlns:xlink="http://www.w3.org/1999/xlink" x="0px" y="0px"
	 width="100%" viewBox="0 0 1920 600" enable-background="new 0 0 1920 600" xml:space="preserve">
<path fill="#FFFFFF" opacity="1.000000" stroke="none" 
	d="
M1107.000000,601.000000 
	C993.645752,601.000000 880.291565,601.000000 766.477417,600.650635 
	C768.064270,597.271667 770.218323,594.308411 772.139709,591.201233 
	C782.027649,575.210938 786.730530,557.964661 783.195435,539.242981 
	C779.056946,517.325928 765.227661,502.297394 747.329468,490.388550 
	C751.722656,487.339630 755.849487,484.547607 760.277893,481.945923 
	C766.388611,492.705750 773.282471,502.391083 782.566650,510.284454 
	C801.129028,526.066162 826.109924,528.577820 847.221008,516.612610 
	C851.268372,514.318665 851.840332,511.947266 849.227173,508.647888 
	C843.662537,501.622040 838.088196,494.603119 832.599182,487.518372 
	C826.141541,479.183472 818.458191,472.504059 808.158752,469.437225 
	C796.100342,465.846649 784.175903,467.174866 772.588440,470.421570 
	C776.285095,464.807892 780.044861,459.698212 783.021240,454.166992 
	C783.794434,452.730042 782.789795,449.247833 781.420959,447.988251 
	C779.048218,445.804871 776.872253,447.770203 775.380249,450.058685 
	C774.927612,450.753021 774.619629,451.540192 774.187256,452.249420 
	C765.654602,466.246582 754.187805,476.999664 739.108093,483.476257 
	C732.837830,475.724823 727.374695,467.575989 720.341003,461.144775 
	C705.205688,447.305817 686.806824,442.108215 666.652466,445.715210 
	C637.612061,450.912506 616.328308,467.557922 602.034058,492.977661 
	C586.878052,519.929932 588.099548,547.794312 599.446838,575.639465 
	C602.997009,584.351379 607.780823,592.560669 612.000000,601.000000 
	C519.312439,601.000000 426.624878,601.000000 333.366211,600.591309 
	C333.151611,598.570679 333.460419,596.946533 333.871979,595.348816 
	C337.785156,580.159119 338.928314,564.791260 335.236969,549.479614 
	C328.121674,519.965332 309.991669,498.897552 283.296295,485.370331 
	C264.512878,475.852356 244.809204,474.125824 225.135971,483.125549 
	C210.320633,489.902954 199.378571,501.129761 190.455017,514.475464 
	C187.418854,510.156555 184.643982,506.088867 182.022278,501.703003 
	C190.221420,495.528900 199.059143,490.495453 206.161514,483.659119 
	C225.649185,464.901489 229.349594,440.882416 217.635056,416.495758 
	C214.444992,409.854858 212.350388,409.611786 206.983932,414.314362 
	C201.994293,418.686829 196.696411,422.748260 191.272827,426.576294 
	C179.587234,434.824036 170.625122,444.872772 168.215652,459.542480 
	C166.535019,469.774689 168.087158,479.748016 170.430176,489.378784 
	C164.873154,485.632416 159.811066,481.831543 154.315735,478.821625 
	C152.898239,478.045227 150.119400,479.754364 147.965942,480.321716 
	C148.733017,482.390900 149.343140,484.541077 150.347885,486.487579 
	C150.725952,487.219971 152.046921,487.435333 152.890732,487.962219 
	C166.593445,496.518250 177.282806,507.776245 183.595551,522.749878 
	C175.881699,529.021057 167.646667,534.415649 161.308075,541.505676 
	C146.073730,558.546021 141.617477,578.724976 147.000000,601.000000 
	C98.398521,601.000000 49.797039,601.000000 1.000000,601.000000 
	C1.000000,540.979248 1.000000,480.958282 1.411573,420.449097 
	C3.953707,419.621307 6.095157,419.338654 8.213154,418.933441 
	C32.018658,414.379028 54.208149,405.954407 71.664360,388.613556 
	C99.168358,361.291443 104.950729,328.121063 94.341553,291.912109 
	C87.093353,267.174103 70.920723,250.513519 45.096741,244.561447 
	C32.541538,241.667648 19.983747,242.762543 7.557079,244.638336 
	C8.472664,239.531631 9.299109,234.837982 10.516375,230.067276 
	C22.863373,232.898361 34.848461,235.333023 47.298939,234.100403 
	C73.089699,231.547073 89.247711,216.187271 96.804405,192.781799 
	C98.226425,188.377350 96.347702,186.408936 91.733269,185.975967 
	C84.971588,185.341537 78.141449,184.863663 71.512779,183.488525 
	C48.556038,178.726074 30.275658,185.480881 16.769230,204.774582 
	C14.884161,207.467392 12.981894,210.148178 11.059616,212.414566 
	C9.982051,206.368622 9.090803,200.706711 7.824538,195.129929 
	C7.042194,191.684402 4.961778,189.584274 1.000000,191.000000 
	C1.000000,127.738686 1.000000,64.477379 1.000000,1.000000 
	C65.687401,1.000000 130.375046,1.000000 195.522583,1.349336 
	C193.935745,4.728373 191.781662,7.691700 189.860321,10.798931 
	C179.972595,26.789583 175.269196,44.035995 178.804550,62.758022 
	C182.943375,84.675621 196.774689,99.703049 214.671173,111.612427 
	C210.277374,114.660538 206.150574,117.452477 201.722168,120.054047 
	C195.612000,109.293884 188.717209,99.609177 179.433441,91.715790 
	C160.871811,75.934029 135.882263,73.421753 114.778976,85.387459 
	C110.731491,87.682419 110.159836,90.052910 112.772926,93.352211 
	C118.337509,100.378067 123.911827,107.396973 129.400864,114.481712 
	C135.858414,122.816521 143.541473,129.496094 153.841019,132.562790 
	C165.899506,136.153198 177.824005,134.824478 189.411255,131.578232 
	C185.714386,137.191956 181.954803,142.302002 178.978531,147.833496 
	C178.205383,149.270416 179.210052,152.752914 180.578964,154.011887 
	C182.951523,156.193924 185.128235,154.229065 186.620010,151.940674 
	C187.072571,151.246460 187.376846,150.457077 187.809433,149.748138 
	C196.347275,135.755768 207.811462,124.999252 222.891998,118.523750 
	C229.162308,126.275246 234.617783,134.435257 241.660446,140.853699 
	C256.956146,154.793671 275.459564,159.832764 295.840424,156.206635 
	C321.856445,151.577927 341.717346,137.164474 356.122314,115.437225 
	C374.906219,87.105125 375.010376,57.013630 362.553741,26.359829 
	C359.012421,17.645149 354.219147,9.439235 350.000000,1.000000 
	C442.687561,1.000000 535.375122,1.000000 628.633789,1.408727 
	C628.848328,3.429318 628.539551,5.053456 628.127991,6.651148 
	C624.215759,21.840979 623.070618,37.209026 626.762451,52.520733 
	C633.878723,82.034447 652.008240,103.102806 678.703918,116.629860 
	C697.487427,126.147667 717.190491,127.873016 736.864441,118.874611 
	C751.681091,112.097755 762.618469,100.866745 771.545166,87.524384 
	C774.581299,91.843315 777.356079,95.911095 779.977661,100.296989 
	C771.778564,106.471046 762.940857,111.504433 755.838623,118.340767 
	C736.350281,137.099487 732.649292,161.112366 744.360352,185.505981 
	C747.549866,192.149475 749.652588,192.400589 755.015198,187.684814 
	C759.872253,183.413712 765.033569,179.447464 770.321228,175.716019 
	C780.778992,168.336090 789.491638,159.616333 792.860229,146.846756 
	C795.919739,135.248795 794.380615,123.748405 791.569946,112.621132 
	C797.126587,116.367371 802.188293,120.168068 807.683350,123.177704 
	C809.100342,123.953773 811.879089,122.243439 814.032288,121.675262 
	C813.264954,119.606522 812.654480,117.456734 811.649475,115.510704 
	C811.271301,114.778366 809.950378,114.563240 809.106689,114.036392 
	C795.405212,105.480324 784.716553,94.222939 778.405884,79.250084 
	C786.119873,72.979218 794.353210,67.584625 800.691101,60.495422 
	C815.925903,43.454712 820.381409,23.275274 815.000000,1.000000 
	C928.354248,1.000000 1041.708496,1.000000 1155.522583,1.349305 
	C1153.935669,4.728315 1151.781616,7.691668 1149.860229,10.798854 
	C1139.972290,26.789419 1135.269287,44.036110 1138.804443,62.757961 
	C1142.942993,84.675591 1156.774536,99.703102 1174.671143,111.612434 
	C1170.277222,114.660568 1166.150269,117.452530 1161.721924,120.054024 
	C1155.612061,109.293594 1148.717041,99.609154 1139.433472,91.715614 
	C1120.872559,75.933929 1095.882446,73.421814 1074.778809,85.387589 
	C1070.731445,87.682434 1070.159912,90.052895 1072.773071,93.352226 
	C1078.337646,100.378052 1083.911743,107.397141 1089.400879,114.481750 
	C1095.858643,122.816353 1103.541626,129.496063 1113.841187,132.562820 
	C1125.899536,136.153275 1137.824097,134.826477 1149.411133,131.578217 
	C1145.714478,137.191971 1141.955078,142.302017 1138.978638,147.833511 
	C1138.205566,149.270355 1139.210449,152.752808 1140.579468,154.011932 
	C1142.952148,156.194244 1145.128418,154.228470 1146.620239,151.940430 
	C1147.072754,151.246216 1147.377075,150.456818 1147.809692,149.747910 
	C1156.347656,135.755768 1167.811523,124.999168 1182.891846,118.523743 
	C1189.162231,126.275223 1194.617798,134.435089 1201.660400,140.853638 
	C1216.956177,154.793777 1235.459595,159.832367 1255.840454,156.206772 
	C1281.856934,151.578674 1301.716919,137.163559 1316.122192,115.437675 
	C1334.907104,87.106201 1335.010986,57.014103 1322.553833,26.360104 
	C1319.012451,17.645388 1314.219238,9.439327 1310.000000,0.999994 
	C1402.687622,1.000000 1495.375122,1.000000 1588.633789,1.408706 
	C1588.848755,3.429469 1588.540894,5.053970 1588.129150,6.651655 
	C1584.213989,21.841232 1583.071045,37.209404 1586.762817,52.520824 
	C1593.878906,82.034317 1612.007812,103.103745 1638.704102,116.629662 
	C1657.487305,126.146317 1677.190063,127.873856 1696.864624,118.874588 
	C1711.681519,112.097305 1722.618164,100.866417 1731.544922,87.524323 
	C1734.581299,91.843239 1737.356079,95.911064 1739.977783,100.296982 
	C1731.895752,106.352638 1723.205811,111.291046 1716.182983,117.979889 
	C1696.429810,136.794144 1692.578857,160.964493 1704.360352,185.505722 
	C1707.549683,192.149399 1709.652466,192.400604 1715.015015,187.684937 
	C1719.871948,183.413849 1725.033447,179.447693 1730.321045,175.716019 
	C1740.778320,168.335709 1749.491333,159.616531 1752.860596,146.846802 
	C1755.920654,135.248520 1754.380859,123.748444 1751.569824,112.621246 
	C1757.126465,116.367447 1762.188354,120.168152 1767.683350,123.177750 
	C1769.100220,123.953842 1771.879028,122.243431 1774.032227,121.675255 
	C1773.264893,119.606529 1772.654663,117.456688 1771.649536,115.510704 
	C1771.271362,114.778320 1769.950439,114.563202 1769.106689,114.036346 
	C1755.405151,105.480209 1744.716553,94.222847 1738.405762,79.250122 
	C1746.119751,72.979340 1754.353271,67.584885 1760.690918,60.495422 
	C1775.924805,43.454575 1780.383179,23.275759 1775.000000,1.000000 
	C1823.610474,1.000000 1872.220825,1.000000 1921.000000,1.000000 
	C1921.000000,78.354149 1921.000000,155.708420 1920.790039,233.839172 
	C1919.500488,238.427811 1918.420898,242.239944 1916.960938,245.891479 
	C1912.499146,245.022247 1908.441406,244.100754 1904.331909,243.639435 
	C1876.873779,240.557083 1853.952271,248.674957 1837.841431,271.906128 
	C1826.143799,288.773773 1821.989380,307.939240 1823.068970,328.281708 
	C1824.209961,349.784973 1831.475342,368.908508 1846.326294,384.690704 
	C1866.547241,406.179962 1892.466553,415.929596 1921.000000,420.000000 
	C1921.000000,480.263092 1921.000000,540.526184 1921.000000,601.000000 
	C1856.312622,601.000000 1791.624878,601.000000 1726.477417,600.650635 
	C1728.064209,597.271606 1730.218262,594.308228 1732.139648,591.201050 
	C1742.028198,575.210938 1746.730591,557.964539 1743.195679,539.242981 
	C1739.057495,517.325684 1725.227295,502.297729 1707.329590,490.388550 
	C1711.722778,487.339600 1715.849609,484.547516 1720.278076,481.945984 
	C1726.388672,492.705994 1733.282715,502.391296 1742.566772,510.284698 
	C1761.138794,526.074951 1786.099487,528.584351 1807.221069,516.612549 
	C1811.268311,514.318542 1811.840210,511.947021 1809.227051,508.647827 
	C1803.662354,501.622040 1798.087891,494.603302 1792.598999,487.518433 
	C1786.141602,479.183197 1778.458130,472.504120 1768.158691,469.437134 
	C1756.100464,465.846344 1744.175903,467.174957 1732.588379,470.421570 
	C1736.285034,464.807831 1740.044922,459.698181 1743.021362,454.166992 
	C1743.794678,452.730133 1742.789795,449.247833 1741.420898,447.988220 
	C1739.048340,445.804962 1736.872070,447.769989 1735.380127,450.058655 
	C1734.927368,450.752930 1734.619629,451.540222 1734.187256,452.249420 
	C1725.654663,466.246643 1714.187866,476.999847 1699.108032,483.476257 
	C1692.837769,475.724854 1687.374634,467.576111 1680.341064,461.144714 
	C1665.205811,447.305573 1646.806763,442.108490 1626.652466,445.715240 
	C1597.612061,450.912323 1576.328491,467.557953 1562.034058,492.977325 
	C1546.877441,519.929749 1548.100464,547.794312 1559.446777,575.639587 
	C1562.996826,584.351562 1567.780762,592.560730 1572.000000,601.000000 
	C1479.312378,601.000000 1386.624878,601.000000 1293.366211,600.591309 
	C1293.151733,598.570740 1293.460571,596.946594 1293.872070,595.348938 
	C1297.785522,580.159180 1298.928101,564.791199 1295.236816,549.479553 
	C1288.121582,519.965332 1269.991821,498.896912 1243.296143,485.370514 
	C1224.513062,475.853424 1204.809448,474.125000 1185.135986,483.125488 
	C1170.320679,489.903412 1159.378296,501.129303 1150.455078,514.475464 
	C1147.419189,510.156464 1144.644531,506.088715 1142.023193,501.703064 
	C1150.222412,495.528900 1159.061646,490.496460 1166.162109,483.658539 
	C1185.782471,464.763550 1189.424194,440.443115 1177.396362,416.055939 
	C1174.343872,409.866516 1172.249146,409.710419 1166.984009,414.315399 
	C1161.989868,418.683289 1156.695923,422.748657 1151.272217,426.576721 
	C1139.586670,434.824463 1130.625854,444.873657 1128.214844,459.542938 
	C1126.533081,469.775330 1128.090698,479.747711 1130.428711,489.378052 
	C1124.872070,485.631165 1119.809937,481.830536 1114.314453,478.821075 
	C1112.897217,478.044922 1110.118652,479.754883 1107.965332,480.322815 
	C1108.732910,482.391846 1109.343750,484.541840 1110.348877,486.488159 
	C1110.727173,487.220551 1112.047974,487.435883 1112.891724,487.962677 
	C1126.594360,496.518433 1137.282959,507.776672 1143.595581,522.749878 
	C1135.881714,529.021118 1127.646240,534.415527 1121.307983,541.505798 
	C1106.074829,558.546265 1101.615601,578.724609 1107.000000,601.000000 
M970.914429,229.986603 
	C982.869019,232.904724 994.854797,235.332550 1007.304749,234.099640 
	C1033.099731,231.545227 1049.253052,216.176224 1056.804932,192.778885 
	C1058.226440,188.374741 1056.347290,186.408585 1051.731812,185.975815 
	C1044.970337,185.341843 1038.140625,184.863174 1031.512085,183.488403 
	C1008.556946,178.727417 990.274048,185.474075 976.771057,204.773392 
	C974.885498,207.468292 972.987976,210.154816 971.036499,212.004807 
	C970.040649,206.641830 969.141663,201.258362 968.013245,195.923431 
	C967.318787,192.640457 965.911194,189.578873 961.701294,190.861740 
	C957.700928,192.080750 958.593933,195.188477 959.389526,198.235855 
	C963.602905,214.373718 963.003601,230.328995 956.596558,245.735306 
	C952.511353,245.025711 948.450073,244.102768 944.337097,243.641006 
	C916.852173,240.555344 893.629089,248.501511 877.873352,271.997253 
	C861.138672,296.952789 858.769775,324.485748 867.674622,352.795654 
	C876.480225,380.790131 896.497986,398.683929 922.879211,409.642273 
	C937.223877,415.600861 951.954895,421.762634 968.119934,418.876404 
	C991.989136,414.614655 1014.144836,405.984009 1031.619385,388.656982 
	C1059.161133,361.347748 1064.956543,328.166870 1054.354248,291.943298 
	C1047.112305,267.200745 1030.945801,250.522232 1005.110779,244.565475 
	C992.551575,241.669693 979.991455,242.761429 967.651306,244.225204 
	C968.477661,239.529068 969.304016,234.832916 970.914429,229.986603 
M1450.948730,212.108078 
	C1449.779419,206.114029 1448.720825,200.095276 1447.392334,194.136719 
	C1446.757202,191.288147 1444.378418,189.550018 1441.864624,190.980972 
	C1440.318359,191.861191 1439.645996,194.689880 1439.117798,196.779297 
	C1438.833618,197.903519 1439.712402,199.306549 1440.013428,200.596237 
	C1443.608521,215.998611 1442.671387,231.143692 1436.635498,245.732147 
	C1427.407104,244.828476 1418.133179,242.855820 1408.959961,243.246613 
	C1390.608398,244.028442 1374.882446,251.338821 1362.734985,265.567139 
	C1351.569458,278.645264 1345.776489,293.901306 1343.728394,310.841217 
	C1340.923828,334.039612 1345.315796,355.590637 1358.545166,374.935211 
	C1373.581055,396.921387 1395.518921,408.897736 1420.535522,415.815216 
	C1427.681396,417.791168 1435.153564,419.541016 1442.488647,419.592590 
	C1448.971680,419.638184 1455.582886,417.563934 1461.945190,415.750488 
	C1483.968262,409.473206 1504.077515,399.498688 1518.587280,381.248749 
	C1541.352051,352.615631 1544.728149,320.390717 1532.562378,286.675751 
	C1524.551514,264.474976 1508.640015,249.830902 1485.068848,244.545609 
	C1472.506836,241.728836 1459.961914,242.723755 1447.556519,244.223190 
	C1448.425781,239.539886 1449.295044,234.856583 1450.942627,230.016800 
	C1462.912964,232.881638 1474.902588,235.350601 1487.361450,234.096237 
	C1513.088745,231.506012 1529.345581,216.198746 1536.798218,192.671707 
	C1538.141235,188.432144 1536.425049,186.438492 1532.148438,185.989487 
	C1525.058838,185.245117 1517.907471,184.708832 1510.931641,183.329254 
	C1487.405396,178.676590 1469.134399,186.280365 1455.810425,206.104004 
	C1454.253906,208.419617 1452.621948,210.684540 1450.948730,212.108078 
M490.948792,212.108124 
	C489.779449,206.114090 488.721039,200.095322 487.392578,194.136765 
	C486.757477,191.288269 484.378754,189.550201 481.864807,190.981003 
	C480.319794,191.860352 479.649536,194.689407 479.122223,196.778229 
	C478.838165,197.903488 479.712677,199.306717 480.013672,200.596405 
	C483.608276,215.998779 482.671570,231.143799 476.635498,245.732162 
	C467.407166,244.828491 458.133301,242.855682 448.960144,243.246674 
	C430.608704,244.028870 414.882599,251.338882 402.735046,265.567413 
	C391.569641,278.645599 385.776398,293.901367 383.728394,310.841400 
	C380.923767,334.039825 385.315582,355.590820 398.545166,374.935303 
	C413.581268,396.921387 435.518982,408.897858 460.535706,415.815277 
	C467.681580,417.791199 475.153717,419.540955 482.488953,419.592529 
	C488.971954,419.638123 495.583282,417.563965 501.945435,415.750488 
	C523.968445,409.473083 544.077393,399.498383 558.587341,381.248596 
	C581.352905,352.615479 584.727783,320.389587 572.562988,286.675537 
	C564.552795,264.475830 548.640686,249.830353 525.068848,244.545609 
	C512.506897,241.729202 499.961975,242.723877 487.556488,244.223175 
	C488.425568,239.539520 489.294647,234.855865 490.942230,230.015869 
	C502.912292,232.882629 514.901978,235.350204 527.360962,234.096222 
	C553.095337,231.506104 569.348816,216.190384 576.797852,192.672302 
	C578.141174,188.431107 576.425964,186.438553 572.148926,185.989517 
	C565.059326,185.245148 557.907959,184.709213 550.932190,183.329407 
	C527.405457,178.675781 509.135223,186.281448 495.810333,206.103821 
	C494.253784,208.419418 492.622101,210.684509 490.948792,212.108124 
z"/>
<path fill="#FF9E78" opacity="1.000000" stroke="none" 
	d="
M349.531342,1.000000 
	C354.219147,9.439235 359.012421,17.645149 362.553741,26.359829 
	C375.010376,57.013630 374.906219,87.105125 356.122314,115.437225 
	C341.717346,137.164474 321.856445,151.577927 295.840424,156.206635 
	C275.459564,159.832764 256.956146,154.793671 241.660446,140.853699 
	C234.617783,134.435257 229.162308,126.275246 223.139648,118.315361 
	C230.559311,113.800354 231.211395,111.174294 225.887634,106.898148 
	C225.523743,105.223389 225.194412,103.936943 224.776337,102.680008 
	C218.643661,84.242760 221.418732,67.250885 232.702652,51.448635 
	C240.147720,41.022419 249.547348,32.808426 260.205658,25.910004 
	C262.841217,24.204191 264.083832,21.858698 262.314087,19.223663 
	C260.613464,16.691563 257.869965,16.455582 255.326935,18.397511 
	C249.148926,23.115147 242.524872,27.381674 236.957413,32.740917 
	C220.133102,48.935974 210.398438,68.359283 213.177979,92.333084 
	C213.852844,98.153831 216.747498,103.717209 218.391327,109.606293 
	C217.086884,110.327858 216.012543,110.842056 214.938187,111.356247 
	C196.774689,99.703049 182.943375,84.675621 178.804550,62.758022 
	C175.269196,44.035995 179.972595,26.789583 189.860321,10.798931 
	C191.781662,7.691700 193.935745,4.728373 195.991241,1.349336 
	C247.020889,1.000000 298.041779,1.000000 349.531342,1.000000 
M356.001923,58.557384 
	C354.764313,52.919842 353.834961,47.184292 352.093567,41.706936 
	C351.597565,40.146889 348.741302,39.337219 346.967407,38.183445 
	C345.985260,40.077541 344.775909,41.897366 344.121765,43.898682 
	C343.818085,44.827747 344.609039,46.106144 344.878235,47.232285 
	C347.834961,59.600216 349.905426,72.181931 344.611176,84.238686 
	C341.119568,92.190224 336.110565,99.503456 331.469849,106.907486 
	C329.804352,109.564659 329.022430,112.113113 331.683105,113.789742 
	C332.962952,114.596252 335.859222,113.742989 337.527496,112.781105 
	C339.306793,111.755241 340.609833,109.799141 341.932983,108.102707 
	C353.107880,93.775192 358.351410,77.713310 356.001923,58.557384 
z"/>
<path fill="#FF9E78" opacity="1.000000" stroke="none" 
	d="
M1174.938110,111.356270 
	C1156.774536,99.703102 1142.942993,84.675591 1138.804443,62.757961 
	C1135.269287,44.036110 1139.972290,26.789419 1149.860229,10.798854 
	C1151.781616,7.691668 1153.935669,4.728315 1155.991211,1.349305 
	C1207.020874,1.000000 1258.041870,1.000000 1309.531372,0.999994 
	C1314.219238,9.439327 1319.012451,17.645388 1322.553833,26.360104 
	C1335.010986,57.014103 1334.907104,87.106201 1316.122192,115.437675 
	C1301.716919,137.163559 1281.856934,151.578674 1255.840454,156.206772 
	C1235.459595,159.832367 1216.956177,154.793777 1201.660400,140.853638 
	C1194.617798,134.435089 1189.162231,126.275223 1183.139648,118.315369 
	C1190.559082,113.800453 1191.211182,111.174225 1185.887695,106.898094 
	C1185.523682,105.223396 1185.194214,103.936989 1184.776123,102.680061 
	C1178.643921,84.242828 1181.418701,67.250900 1192.702637,51.448654 
	C1200.147705,41.022457 1209.547241,32.808407 1220.205566,25.910059 
	C1222.841431,24.204060 1224.083496,21.858578 1222.313843,19.223671 
	C1220.613281,16.691290 1217.869751,16.455679 1215.326782,18.397648 
	C1209.148926,23.115383 1202.525391,27.382399 1196.957520,32.741211 
	C1180.131470,48.935619 1170.400879,68.360359 1173.178345,92.333229 
	C1173.852661,98.153847 1176.747681,103.717186 1178.391479,109.606194 
	C1177.086914,110.327789 1176.012573,110.842033 1174.938110,111.356270 
M1315.553589,54.161541 
	C1314.400024,49.851517 1313.576782,45.407867 1311.916260,41.302898 
	C1311.323730,39.838242 1308.702881,39.194122 1307.007690,38.175442 
	C1306.005615,39.892429 1304.698730,41.513580 1304.117310,43.362820 
	C1303.774536,44.452599 1304.575195,45.905750 1304.873901,47.192642 
	C1307.665771,59.220947 1309.339722,71.201782 1305.099121,83.334061 
	C1302.041382,92.082153 1297.739380,100.022850 1291.563721,106.928543 
	C1289.439697,109.303650 1289.010986,112.076004 1291.661133,113.771805 
	C1292.933838,114.586159 1296.210693,113.978592 1297.474731,112.814690 
	C1304.811401,106.059166 1309.588379,97.534409 1313.047485,88.260941 
	C1317.081177,77.446754 1316.994263,66.261032 1315.553589,54.161541 
z"/>
<path fill="#FF9E78" opacity="1.000000" stroke="none" 
	d="
M1572.468628,601.000000 
	C1567.780762,592.560730 1562.996826,584.351562 1559.446777,575.639587 
	C1548.100464,547.794312 1546.877441,519.929749 1562.034058,492.977325 
	C1576.328491,467.557953 1597.612061,450.912323 1626.652466,445.715240 
	C1646.806763,442.108490 1665.205811,447.305573 1680.341064,461.144714 
	C1687.374634,467.576111 1692.837769,475.724854 1698.860352,483.684631 
	C1691.439209,488.209259 1690.914062,490.294922 1696.033691,495.478210 
	C1703.838013,516.036621 1701.215332,534.821960 1688.274414,552.104065 
	C1681.036743,561.769592 1672.044434,569.580750 1661.878784,576.041138 
	C1659.224243,577.728088 1657.927734,580.053711 1659.632568,582.705933 
	C1661.269897,585.253296 1664.034546,585.603455 1666.598022,583.643616 
	C1672.909424,578.818237 1679.673096,574.444092 1685.344727,568.949097 
	C1701.997681,552.814941 1711.592407,533.471497 1708.821777,509.680115 
	C1708.143311,503.854279 1705.251587,498.286224 1703.607666,492.392548 
	C1704.913086,491.672119 1705.988159,491.158783 1707.063110,490.645447 
	C1725.227295,502.297729 1739.057495,517.325684 1743.195679,539.242981 
	C1746.730591,557.964539 1742.028198,575.210938 1732.139648,591.201050 
	C1730.218262,594.308228 1728.064209,597.271606 1726.008789,600.650635 
	C1674.979126,601.000000 1623.958130,601.000000 1572.468628,601.000000 
M1588.459351,487.058777 
	C1586.933350,487.907806 1585.081299,488.445953 1583.930542,489.652740 
	C1568.352783,505.990997 1562.999634,525.517822 1566.427368,547.580200 
	C1567.107300,551.956238 1568.322021,556.326599 1569.951294,560.437561 
	C1570.559326,561.971863 1573.056519,562.757385 1574.692261,563.884338 
	C1575.793823,562.087891 1577.128174,560.383545 1577.892578,558.453430 
	C1578.240234,557.575562 1577.377075,556.263733 1577.205200,555.127319 
	C1576.120728,547.957764 1574.012939,540.748108 1574.241577,533.615784 
	C1574.706909,519.108643 1580.549438,506.361481 1590.116821,495.412476 
	C1592.873047,492.258026 1592.947144,489.563873 1588.459351,487.058777 
z"/>
<path fill="#FF9E78" opacity="1.000000" stroke="none" 
	d="
M612.468628,601.000000 
	C607.780823,592.560669 602.997009,584.351379 599.446838,575.639465 
	C588.099548,547.794312 586.878052,519.929932 602.034058,492.977661 
	C616.328308,467.557922 637.612061,450.912506 666.652466,445.715210 
	C686.806824,442.108215 705.205688,447.305817 720.341003,461.144775 
	C727.374695,467.575989 732.837830,475.724823 738.860413,483.684631 
	C731.439514,488.208862 730.914185,490.295044 736.033630,495.478210 
	C743.837952,516.036682 741.215515,534.822083 728.274170,552.104187 
	C721.036438,561.769592 712.044434,569.581055 701.878601,576.041321 
	C699.223938,577.728271 697.927612,580.054016 699.632568,582.706116 
	C701.269897,585.253113 704.034607,585.603638 706.598206,583.643555 
	C712.909424,578.818115 719.673096,574.444031 725.344910,568.949219 
	C741.998596,552.815308 751.590576,533.470520 748.822205,509.680023 
	C748.144348,503.854218 745.251709,498.286133 743.607788,492.392517 
	C744.913147,491.672119 745.988098,491.158783 747.063049,490.645447 
	C765.227661,502.297394 779.056946,517.325928 783.195435,539.242981 
	C786.730530,557.964661 782.027649,575.210938 772.139709,591.201233 
	C770.218323,594.308411 768.064270,597.271667 766.008789,600.650635 
	C714.979126,601.000000 663.958191,601.000000 612.468628,601.000000 
M622.829102,505.397217 
	C625.490234,501.816223 628.518127,498.436005 630.639954,494.559814 
	C631.544983,492.906372 630.557678,490.217041 630.430237,487.998474 
	C628.537048,488.246582 626.319458,487.964905 624.831970,488.875641 
	C622.931152,490.039398 621.517395,492.083466 620.069580,493.889221 
	C607.934692,509.024475 603.550598,526.342957 606.095459,545.408020 
	C606.767822,550.445251 608.130493,555.467285 609.873718,560.241516 
	C610.458862,561.843933 613.208801,562.655884 614.969299,563.829163 
	C615.973938,561.956787 617.149658,560.149170 617.896606,558.179077 
	C618.183777,557.421692 617.405945,556.307007 617.264282,555.333252 
	C616.173462,547.833191 614.224609,540.321106 614.279724,532.825562 
	C614.349670,523.324280 617.634399,514.331116 622.829102,505.397217 
z"/>
<path fill="#FF9E78" opacity="1.000000" stroke="none" 
	d="
M814.531372,1.000000 
	C820.381409,23.275274 815.925903,43.454712 800.691101,60.495422 
	C794.353210,67.584625 786.119873,72.979218 778.122192,79.004425 
	C773.600037,71.555908 771.466797,70.969955 766.680054,76.035500 
	C758.419800,77.710533 750.505859,80.824997 742.657166,80.668495 
	C727.393250,80.364136 713.969543,74.140762 703.417297,62.823845 
	C696.985535,55.925983 691.036011,48.576351 684.925354,41.382496 
	C683.019836,39.139164 680.599182,38.054726 678.660034,40.448799 
	C677.586670,41.774143 677.283020,45.032143 678.175659,46.441479 
	C689.054810,63.617737 702.861816,77.751183 722.106567,85.405640 
	C730.875000,88.893204 740.131226,90.912010 749.731750,89.050270 
	C756.526306,87.732674 763.302002,86.317810 770.318726,85.093300 
	C770.795471,85.917900 771.039673,86.595558 771.283813,87.273224 
	C762.618469,100.866745 751.681091,112.097755 736.864441,118.874611 
	C717.190491,127.873016 697.487427,126.147667 678.703918,116.629860 
	C652.008240,103.102806 633.878723,82.034447 626.762451,52.520733 
	C623.070618,37.209026 624.215759,21.840979 628.127991,6.651148 
	C628.539551,5.053456 628.848328,3.429318 629.102417,1.408727 
	C690.687561,1.000000 752.375122,1.000000 814.531372,1.000000 
z"/>
<path fill="#FF9E78" opacity="1.000000" stroke="none" 
	d="
M1731.283569,87.273239 
	C1722.618164,100.866417 1711.681519,112.097305 1696.864624,118.874588 
	C1677.190063,127.873856 1657.487305,126.146317 1638.704102,116.629662 
	C1612.007812,103.103745 1593.878906,82.034317 1586.762817,52.520824 
	C1583.071045,37.209404 1584.213989,21.841232 1588.129150,6.651655 
	C1588.540894,5.053970 1588.848755,3.429469 1589.102417,1.408706 
	C1650.687622,1.000000 1712.375122,1.000000 1774.531372,1.000000 
	C1780.383179,23.275759 1775.924805,43.454575 1760.690918,60.495422 
	C1754.353271,67.584885 1746.119751,72.979340 1738.122070,79.004395 
	C1733.599854,71.555740 1731.466797,70.969841 1726.680054,76.035507 
	C1718.419800,77.710533 1710.505859,80.824921 1702.657104,80.668533 
	C1687.393066,80.364418 1673.969604,74.140419 1663.417480,62.823658 
	C1656.985596,55.925896 1651.036133,48.576176 1644.925415,41.382359 
	C1643.019897,39.138973 1640.598877,38.054996 1638.659912,40.448799 
	C1637.586548,41.774052 1637.282959,45.032127 1638.175659,46.441486 
	C1649.054565,63.617825 1662.861572,77.751297 1682.106445,85.405640 
	C1690.874756,88.893120 1700.130859,90.912712 1709.731689,89.050362 
	C1716.526123,87.732376 1723.301880,86.317856 1730.318604,85.093369 
	C1730.795288,85.917969 1731.039429,86.595604 1731.283569,87.273239 
z"/>
<path fill="#FF9E78" opacity="1.000000" stroke="none" 
	d="
M147.468658,601.000000 
	C141.617477,578.724976 146.073730,558.546021 161.308075,541.505676 
	C167.646667,534.415649 175.881699,529.021057 183.879181,522.995667 
	C188.447418,530.538879 190.472931,531.095093 195.321777,525.964233 
	C203.581833,524.289246 211.495651,521.175598 219.344498,521.331543 
	C234.609039,521.634766 248.031296,527.861206 258.583618,539.177124 
	C265.015686,546.074646 270.964935,553.424438 277.075470,560.618286 
	C278.981415,562.862183 281.402557,563.944458 283.340820,561.550598 
	C284.413971,560.225159 284.716614,556.967346 283.823792,555.557739 
	C272.944794,538.381592 259.137726,524.248535 239.893219,516.594177 
	C231.124832,513.106628 221.868729,511.087372 212.268066,512.949585 
	C205.473648,514.267517 198.697983,515.682190 191.681381,516.906677 
	C191.204651,516.082092 190.960464,515.404419 190.716293,514.726746 
	C199.378571,501.129761 210.320633,489.902954 225.135971,483.125549 
	C244.809204,474.125824 264.512878,475.852356 283.296295,485.370331 
	C309.991669,498.897552 328.121674,519.965332 335.236969,549.479614 
	C338.928314,564.791260 337.785156,580.159119 333.871979,595.348816 
	C333.460419,596.946533 333.151611,598.570679 332.897583,600.591309 
	C271.312439,601.000000 209.624878,601.000000 147.468658,601.000000 
z"/>
<path fill="#FF9E78" opacity="1.000000" stroke="none" 
	d="
M1150.716431,514.726746 
	C1159.378296,501.129303 1170.320679,489.903412 1185.135986,483.125488 
	C1204.809448,474.125000 1224.513062,475.853424 1243.296143,485.370514 
	C1269.991821,498.896912 1288.121582,519.965332 1295.236816,549.479553 
	C1298.928101,564.791199 1297.785522,580.159180 1293.872070,595.348938 
	C1293.460571,596.946594 1293.151733,598.570740 1292.897583,600.591309 
	C1231.312378,601.000000 1169.624878,601.000000 1107.468628,601.000000 
	C1101.615601,578.724609 1106.074829,558.546265 1121.307983,541.505798 
	C1127.646240,534.415527 1135.881714,529.021118 1143.879150,522.995728 
	C1148.398315,530.439087 1150.534180,531.025574 1155.321533,525.964233 
	C1163.581665,524.289062 1171.495483,521.175354 1179.344360,521.331360 
	C1194.608887,521.634705 1208.031128,527.860901 1218.583496,539.176941 
	C1225.015503,546.074524 1230.964844,553.424255 1237.075439,560.618225 
	C1238.981445,562.862122 1241.402588,563.944397 1243.340942,561.550720 
	C1244.414185,560.225464 1244.716553,556.967407 1243.823730,555.557739 
	C1232.945190,538.381165 1219.137573,524.248474 1199.893311,516.594116 
	C1191.125000,513.106567 1181.868896,511.087189 1172.268066,512.949646 
	C1165.473755,514.267761 1158.697998,515.682190 1151.681396,516.906616 
	C1151.204712,516.082031 1150.960571,515.404358 1150.716431,514.726746 
z"/>
<path fill="#FF9E78" opacity="1.000000" stroke="none" 
	d="
M1921.000000,419.531342 
	C1892.466553,415.929596 1866.547241,406.179962 1846.326294,384.690704 
	C1831.475342,368.908508 1824.209961,349.784973 1823.068970,328.281708 
	C1821.989380,307.939240 1826.143799,288.773773 1837.841431,271.906128 
	C1853.952271,248.674957 1876.873779,240.557083 1904.331909,243.639435 
	C1908.441406,244.100754 1912.499146,245.022247 1916.884277,246.292969 
	C1915.078003,254.314896 1915.286987,254.870941 1921.000000,257.000000 
	C1921.000000,311.020905 1921.000000,365.041779 1921.000000,419.531342 
M1858.992798,363.455597 
	C1856.540649,358.413239 1853.495361,353.561829 1851.793945,348.277710 
	C1849.887939,342.358459 1849.467773,335.972931 1847.802002,329.956177 
	C1847.353760,328.336945 1844.573975,326.157104 1843.145264,326.347046 
	C1841.647827,326.546143 1839.328735,329.333038 1839.394165,330.904663 
	C1839.604980,335.975403 1840.423340,341.083649 1841.588379,346.040955 
	C1846.510376,366.985229 1859.774292,381.270844 1878.356445,391.086334 
	C1881.034302,392.500854 1884.270264,393.347168 1886.083252,389.664398 
	C1887.837524,386.100677 1885.089233,384.683807 1882.546143,383.238770 
	C1873.701660,378.213043 1865.359497,372.571259 1858.992798,363.455597 
z"/>
<path fill="#FF9E78" opacity="1.000000" stroke="none" 
	d="
M7.467940,245.051407 
	C19.983747,242.762543 32.541538,241.667648 45.096741,244.561447 
	C70.920723,250.513519 87.093353,267.174103 94.341553,291.912109 
	C104.950729,328.121063 99.168358,361.291443 71.664360,388.613556 
	C54.208149,405.954407 32.018658,414.379028 8.213154,418.933441 
	C6.095157,419.338654 3.953707,419.621307 1.411573,419.980438 
	C1.000000,365.645782 1.000000,311.291534 1.327090,256.526703 
	C2.095490,256.079285 2.536800,256.042450 3.182809,256.280670 
	C9.051631,260.257904 15.237613,263.363251 20.282440,267.773804 
	C35.679379,281.234924 39.317020,299.382935 38.747799,318.705017 
	C38.554806,325.256134 36.663692,331.745605 36.220772,338.308594 
	C36.099709,340.102448 38.006821,342.981659 39.706264,343.737976 
	C42.592964,345.022644 44.371132,342.523407 44.827206,339.864014 
	C48.112343,320.708099 49.370758,301.518219 41.789490,283.060547 
	C35.060455,266.677795 23.469770,254.844559 6.478675,248.571106 
	C6.845738,247.175385 7.156840,246.113403 7.467940,245.051407 
z"/>
<path fill="#508939" opacity="1.000000" stroke="none" 
	d="
M2.978111,256.005646 
	C2.536800,256.042450 2.095490,256.079285 1.327090,256.058044 
	C1.000000,234.645767 1.000000,213.291550 1.000000,191.468658 
	C4.961778,189.584274 7.042194,191.684402 7.824538,195.129929 
	C9.090803,200.706711 9.982051,206.368622 10.994850,212.783554 
	C9.997938,215.650620 9.289319,217.898117 8.026901,219.772644 
	C5.135137,224.066528 6.059435,227.368790 10.125555,230.144348 
	C9.299109,234.837982 8.472664,239.531631 7.557080,244.638336 
	C7.156840,246.113403 6.845738,247.175385 6.315915,248.842331 
	C5.057499,251.633408 4.017805,253.819519 2.978111,256.005646 
z"/>
<path fill="#558B3D" opacity="1.000000" stroke="none" 
	d="
M1921.000000,256.531372 
	C1915.286987,254.870941 1915.078003,254.314896 1917.264404,246.453583 
	C1918.420898,242.239944 1919.500488,238.427811 1920.790039,234.307831 
	C1921.000000,241.354248 1921.000000,248.708496 1921.000000,256.531372 
z"/>
<path fill="#FF9E78" opacity="1.000000" stroke="none" 
	d="
M967.472229,245.051453 
	C979.991455,242.761429 992.551575,241.669693 1005.110779,244.565475 
	C1030.945801,250.522232 1047.112305,267.200745 1054.354248,291.943298 
	C1064.956543,328.166870 1059.161133,361.347748 1031.619385,388.656982 
	C1014.144836,405.984009 991.989136,414.614655 968.119934,418.876404 
	C951.954895,421.762634 937.223877,415.600861 922.879211,409.642273 
	C896.497986,398.683929 876.480225,380.790131 867.674622,352.795654 
	C858.769775,324.485748 861.138672,296.952789 877.873352,271.997253 
	C893.629089,248.501511 916.852173,240.555344 944.337097,243.641006 
	C948.450073,244.102768 952.511353,245.025711 956.900146,246.298187 
	C955.041260,254.482178 955.486328,255.500580 961.951416,256.841064 
	C968.422363,260.526672 975.172058,263.354431 980.405579,267.920227 
	C995.824829,281.372314 999.349976,299.624756 998.712280,318.977478 
	C998.501526,325.374695 996.901306,331.720032 996.058533,338.105225 
	C995.669189,341.055481 996.494141,343.478149 999.933105,343.950562 
	C1003.233215,344.403900 1004.447510,342.144958 1004.883667,339.540009 
	C1008.039734,320.688568 1009.302368,301.843140 1001.964417,283.611115 
	C995.252502,266.934875 983.655151,254.962387 966.484375,248.571289 
	C966.851440,247.175522 967.161804,246.113480 967.472229,245.051453 
M909.692871,385.855499 
	C912.514954,387.591339 915.231079,389.542328 918.190308,390.999695 
	C920.892334,392.330414 924.054138,393.436646 926.000122,389.828186 
	C927.877197,386.347351 925.323547,384.764191 922.706848,383.331512 
	C912.394836,377.685394 903.285828,370.679108 896.998901,360.494324 
	C891.835999,352.130524 889.709595,342.861389 888.496948,333.238098 
	C888.096313,330.058472 888.314087,325.328156 883.029114,326.141113 
	C877.866150,326.935333 879.691162,330.966675 879.917786,334.384003 
	C881.363037,356.175720 891.225891,373.084076 909.692871,385.855499 
z"/>
<path fill="#FF9E78" opacity="1.000000" stroke="none" 
	d="
M1447.453613,245.072250 
	C1459.961914,242.723755 1472.506836,241.728836 1485.068848,244.545609 
	C1508.640015,249.830902 1524.551514,264.474976 1532.562378,286.675751 
	C1544.728149,320.390717 1541.352051,352.615631 1518.587280,381.248749 
	C1504.077515,399.498688 1483.968262,409.473206 1461.945190,415.750488 
	C1455.582886,417.563934 1448.971680,419.638184 1442.488647,419.592590 
	C1435.153564,419.541016 1427.681396,417.791168 1420.535522,415.815216 
	C1395.518921,408.897736 1373.581055,396.921387 1358.545166,374.935211 
	C1345.315796,355.590637 1340.923828,334.039612 1343.728394,310.841217 
	C1345.776489,293.901306 1351.569458,278.645264 1362.734985,265.567139 
	C1374.882446,251.338821 1390.608398,244.028442 1408.959961,243.246613 
	C1418.133179,242.855820 1427.407104,244.828476 1436.941895,246.288818 
	C1435.006836,254.252197 1435.548218,255.503708 1441.964355,256.843109 
	C1448.419800,260.518829 1455.151489,263.334900 1460.362549,267.890320 
	C1475.756592,281.347473 1479.325684,299.590637 1478.714111,318.942749 
	C1478.511963,325.336639 1476.906738,331.680267 1476.059937,338.062347 
	C1475.669922,341.001617 1476.454468,343.445923 1479.887207,343.947449 
	C1483.169678,344.427063 1484.402710,342.203827 1484.880981,339.588837 
	C1487.479370,325.377930 1488.920776,311.087921 1485.923096,296.772552 
	C1482.547363,280.651154 1475.402710,266.686371 1461.499878,257.021881 
	C1456.760620,253.727325 1451.728638,250.853653 1446.854858,247.505188 
	C1447.070679,246.505875 1447.262207,245.789062 1447.453613,245.072250 
M1396.598877,390.079041 
	C1397.314453,390.498627 1397.987305,391.032654 1398.753052,391.317505 
	C1401.755493,392.434601 1405.241333,392.955078 1406.341064,389.409515 
	C1406.806274,387.910187 1404.326660,385.138458 1402.671753,383.448120 
	C1401.213623,381.958862 1399.019409,381.203583 1397.185913,380.066620 
	C1386.478516,373.426910 1377.746948,364.862488 1373.536377,352.803375 
	C1370.996460,345.529327 1370.031128,337.717499 1367.822632,330.307007 
	C1367.300903,328.556427 1364.623047,327.448456 1362.937012,326.044922 
	C1361.954712,327.651825 1360.376587,329.170593 1360.123047,330.885315 
	C1359.690308,333.809906 1359.684448,336.929657 1360.203247,339.842041 
	C1364.171509,362.120605 1375.855469,378.929718 1396.598877,390.079041 
z"/>
<path fill="#FF9E78" opacity="1.000000" stroke="none" 
	d="
M487.453674,245.072250 
	C499.961975,242.723877 512.506897,241.729202 525.068848,244.545609 
	C548.640686,249.830353 564.552795,264.475830 572.562988,286.675537 
	C584.727783,320.389587 581.352905,352.615479 558.587341,381.248596 
	C544.077393,399.498383 523.968445,409.473083 501.945435,415.750488 
	C495.583282,417.563965 488.971954,419.638123 482.488953,419.592529 
	C475.153717,419.540955 467.681580,417.791199 460.535706,415.815277 
	C435.518982,408.897858 413.581268,396.921387 398.545166,374.935303 
	C385.315582,355.590820 380.923767,334.039825 383.728394,310.841400 
	C385.776398,293.901367 391.569641,278.645599 402.735046,265.567413 
	C414.882599,251.338882 430.608704,244.028870 448.960144,243.246674 
	C458.133301,242.855682 467.407166,244.828491 476.941956,246.288849 
	C475.006897,254.252228 475.548340,255.503754 481.964417,256.843231 
	C488.419830,260.518890 495.151550,263.334930 500.362549,267.890472 
	C515.756165,281.347687 519.326233,299.590302 518.713806,318.942596 
	C518.511475,325.336517 516.906311,331.680084 516.059692,338.062225 
	C515.669861,341.001129 516.454468,343.445740 519.887146,343.947449 
	C523.170349,344.427338 524.401855,342.203278 524.880188,339.588470 
	C527.479797,325.377747 528.920715,311.087891 525.923157,296.772583 
	C522.547363,280.651184 515.402893,266.686340 501.500031,257.021851 
	C496.760590,253.727280 491.728516,250.853760 486.854614,247.505341 
	C487.070648,246.505966 487.262177,245.789108 487.453674,245.072250 
M416.422882,359.032227 
	C415.629852,357.583435 414.512177,356.221344 414.098328,354.671356 
	C411.972473,346.709229 410.226196,338.639587 407.872864,330.748993 
	C407.318756,328.891235 405.104858,326.526978 403.349792,326.236450 
	C399.640076,325.622284 399.678528,328.989716 400.055573,331.405457 
	C401.248016,339.044922 401.843353,346.938080 404.283417,354.190155 
	C410.036133,371.287628 422.621002,382.640656 438.132355,391.003876 
	C441.086700,392.596771 444.675110,393.234894 446.396423,389.607025 
	C447.911255,386.414398 445.118256,384.645203 442.500397,383.202667 
	C432.040863,377.439026 422.743652,370.378510 416.422882,359.032227 
z"/>
<path fill="#68B54A" opacity="1.000000" stroke="none" 
	d="
M772.359436,470.768372 
	C784.175903,467.174866 796.100342,465.846649 808.158752,469.437225 
	C818.458191,472.504059 826.141541,479.183472 832.599182,487.518372 
	C838.088196,494.603119 843.662537,501.622040 849.227173,508.647888 
	C851.840332,511.947266 851.268372,514.318665 847.221008,516.612610 
	C826.109924,528.577820 801.129028,526.066162 782.566650,510.284454 
	C773.282471,502.391083 766.388611,492.705750 760.269775,481.589722 
	C758.649597,477.079651 759.780945,474.518524 764.032654,473.437988 
	C766.852295,472.721375 769.586792,471.669922 772.359436,470.768372 
z"/>
<path fill="#68B54A" opacity="1.000000" stroke="none" 
	d="
M1732.359497,470.768433 
	C1744.175903,467.174957 1756.100464,465.846344 1768.158691,469.437134 
	C1778.458130,472.504120 1786.141602,479.183197 1792.598999,487.518433 
	C1798.087891,494.603302 1803.662354,501.622040 1809.227051,508.647827 
	C1811.840210,511.947021 1811.268311,514.318542 1807.221069,516.612549 
	C1786.099487,528.584351 1761.138794,526.074951 1742.566772,510.284698 
	C1733.282715,502.391296 1726.388672,492.705994 1720.269775,481.589783 
	C1718.649658,477.079620 1719.780762,474.518372 1724.032715,473.437927 
	C1726.852295,472.721405 1729.586914,471.669983 1732.359497,470.768433 
z"/>
<path fill="#68B54A" opacity="1.000000" stroke="none" 
	d="
M1149.640503,131.231613 
	C1137.824097,134.826477 1125.899536,136.153275 1113.841187,132.562820 
	C1103.541626,129.496063 1095.858643,122.816353 1089.400879,114.481750 
	C1083.911743,107.397141 1078.337646,100.378052 1072.773071,93.352226 
	C1070.159912,90.052895 1070.731445,87.682434 1074.778809,85.387589 
	C1095.882446,73.421814 1120.872559,75.933929 1139.433472,91.715614 
	C1148.717041,99.609154 1155.612061,109.293594 1161.730225,120.410233 
	C1163.348999,124.919754 1162.219238,127.481850 1157.967041,128.562241 
	C1155.147461,129.278656 1152.413086,130.330124 1149.640503,131.231613 
z"/>
<path fill="#68B54A" opacity="1.000000" stroke="none" 
	d="
M189.640625,131.231689 
	C177.824005,134.824478 165.899506,136.153198 153.841019,132.562790 
	C143.541473,129.496094 135.858414,122.816521 129.400864,114.481712 
	C123.911827,107.396973 118.337509,100.378067 112.772926,93.352211 
	C110.159836,90.052910 110.731491,87.682419 114.778976,85.387459 
	C135.882263,73.421753 160.871811,75.934029 179.433441,91.715790 
	C188.717209,99.609177 195.612000,109.293884 201.730255,120.410263 
	C203.348877,124.919624 202.219284,127.481743 197.967117,128.562195 
	C195.147568,129.278641 192.413147,130.330170 189.640625,131.231689 
z"/>
<path fill="#68B449" opacity="1.000000" stroke="none" 
	d="
M491.025208,212.973007 
	C492.622101,210.684509 494.253784,208.419418 495.810333,206.103821 
	C509.135223,186.281448 527.405457,178.675781 550.932190,183.329407 
	C557.907959,184.709213 565.059326,185.245148 572.148926,185.989517 
	C576.425964,186.438553 578.141174,188.431107 576.797852,192.672302 
	C569.348816,216.190384 553.095337,231.506104 527.360962,234.096222 
	C514.901978,235.350204 502.912292,232.882629 490.344574,229.802277 
	C485.976532,227.280548 485.329346,224.399246 487.661469,220.540833 
	C489.078247,218.196838 489.923309,215.507324 491.025208,212.973007 
z"/>
<path fill="#68B449" opacity="1.000000" stroke="none" 
	d="
M1451.025146,212.972992 
	C1452.621948,210.684540 1454.253906,208.419617 1455.810425,206.104004 
	C1469.134399,186.280365 1487.405396,178.676590 1510.931641,183.329254 
	C1517.907471,184.708832 1525.058838,185.245117 1532.148438,185.989487 
	C1536.425049,186.438492 1538.141235,188.432144 1536.798218,192.671707 
	C1529.345581,216.198746 1513.088745,231.506012 1487.361450,234.096237 
	C1474.902588,235.350601 1462.912964,232.881638 1450.345215,229.803131 
	C1445.977905,227.281372 1445.328369,224.400467 1447.661255,220.541290 
	C1449.078369,218.197281 1449.923218,215.507492 1451.025146,212.972992 
z"/>
<path fill="#68B449" opacity="1.000000" stroke="none" 
	d="
M1751.236206,112.381226 
	C1754.380859,123.748444 1755.920654,135.248520 1752.860596,146.846802 
	C1749.491333,159.616531 1740.778320,168.335709 1730.321045,175.716019 
	C1725.033447,179.447693 1719.871948,183.413849 1715.015015,187.684937 
	C1709.652466,192.400604 1707.549683,192.149399 1704.360352,185.505722 
	C1692.578857,160.964493 1696.429810,136.794144 1716.182983,117.979889 
	C1723.205811,111.291046 1731.895752,106.352638 1740.384277,100.299614 
	C1745.567993,99.277214 1748.032227,101.487381 1749.104492,105.830582 
	C1749.653564,108.054001 1750.515503,110.200157 1751.236206,112.381226 
z"/>
<path fill="#68B449" opacity="1.000000" stroke="none" 
	d="
M791.236328,112.381096 
	C794.380615,123.748405 795.919739,135.248795 792.860229,146.846756 
	C789.491638,159.616333 780.778992,168.336090 770.321228,175.716019 
	C765.033569,179.447464 759.872253,183.413712 755.015198,187.684814 
	C749.652588,192.400589 747.549866,192.149475 744.360352,185.505981 
	C732.649292,161.112366 736.350281,137.099487 755.838623,118.340767 
	C762.940857,111.504433 771.778564,106.471046 780.384155,100.299622 
	C785.567627,99.277657 788.032227,101.487228 789.104492,105.830513 
	C789.653442,108.053955 790.515686,110.200050 791.236328,112.381096 
z"/>
<path fill="#68B449" opacity="1.000000" stroke="none" 
	d="
M170.763794,489.618805 
	C168.087158,479.748016 166.535019,469.774689 168.215652,459.542480 
	C170.625122,444.872772 179.587234,434.824036 191.272827,426.576294 
	C196.696411,422.748260 201.994293,418.686829 206.983932,414.314362 
	C212.350388,409.611786 214.444992,409.854858 217.635056,416.495758 
	C229.349594,440.882416 225.649185,464.901489 206.161514,483.659119 
	C199.059143,490.495453 190.221420,495.528900 181.615738,501.700378 
	C176.432159,502.722565 173.967773,500.512634 172.895447,496.169403 
	C172.346466,493.945984 171.484375,491.799866 170.763794,489.618805 
z"/>
<path fill="#68B449" opacity="1.000000" stroke="none" 
	d="
M1130.761841,489.618866 
	C1128.090698,479.747711 1126.533081,469.775330 1128.214844,459.542938 
	C1130.625854,444.873657 1139.586670,434.824463 1151.272217,426.576721 
	C1156.695923,422.748657 1161.989868,418.683289 1166.984009,414.315399 
	C1172.249146,409.710419 1174.343872,409.866516 1177.396362,416.055939 
	C1189.424194,440.443115 1185.782471,464.763550 1166.162109,483.658539 
	C1159.061646,490.496460 1150.222412,495.528900 1141.616699,501.700439 
	C1136.433105,502.722076 1133.967896,500.513489 1132.895386,496.169434 
	C1132.346436,493.945831 1131.483032,491.799896 1130.761841,489.618866 
z"/>
<path fill="#68B449" opacity="1.000000" stroke="none" 
	d="
M10.516375,230.067276 
	C6.059435,227.368790 5.135137,224.066528 8.026901,219.772644 
	C9.289319,217.898117 9.997938,215.650620 11.022816,213.203522 
	C12.981894,210.148178 14.884161,207.467392 16.769230,204.774582 
	C30.275658,185.480881 48.556038,178.726074 71.512779,183.488525 
	C78.141449,184.863663 84.971588,185.341537 91.733269,185.975967 
	C96.347702,186.408936 98.226425,188.377350 96.804405,192.781799 
	C89.247711,216.187271 73.089699,231.547073 47.298939,234.100403 
	C34.848461,235.333023 22.863373,232.898361 10.516375,230.067276 
z"/>
<path fill="#68B449" opacity="1.000000" stroke="none" 
	d="
M971.096069,212.845245 
	C972.987976,210.154816 974.885498,207.468292 976.771057,204.773392 
	C990.274048,185.474075 1008.556946,178.727417 1031.512085,183.488403 
	C1038.140625,184.863174 1044.970337,185.341843 1051.731812,185.975815 
	C1056.347290,186.408585 1058.226440,188.374741 1056.804932,192.778885 
	C1049.253052,216.176224 1033.099731,231.545227 1007.304749,234.099640 
	C994.854797,235.332550 982.869019,232.904724 970.316162,229.772659 
	C966.225586,227.377899 965.252869,224.691727 967.481018,220.888824 
	C968.958435,218.367233 969.909424,215.537186 971.096069,212.845245 
z"/>
<path fill="#538A3C" opacity="1.000000" stroke="none" 
	d="
M1732.588379,470.421570 
	C1729.586914,471.669983 1726.852295,472.721405 1724.032715,473.437927 
	C1719.780762,474.518372 1718.649658,477.079620 1719.968262,481.399292 
	C1715.849609,484.547516 1711.722778,487.339600 1707.329590,490.388550 
	C1705.988159,491.158783 1704.913086,491.672119 1703.283203,492.463684 
	C1700.478516,493.531525 1698.228760,494.321136 1695.979126,495.110779 
	C1690.914062,490.294922 1691.439209,488.209259 1698.955444,484.065796 
	C1714.187866,476.999847 1725.654663,466.246643 1734.187256,452.249420 
	C1734.619629,451.540222 1734.927368,450.752930 1735.380127,450.058655 
	C1736.872070,447.769989 1739.048340,445.804962 1741.420898,447.988220 
	C1742.789795,449.247833 1743.794678,452.730133 1743.021362,454.166992 
	C1740.044922,459.698181 1736.285034,464.807831 1732.588379,470.421570 
z"/>
<path fill="#538A3C" opacity="1.000000" stroke="none" 
	d="
M772.588440,470.421570 
	C769.586792,471.669922 766.852295,472.721375 764.032654,473.437988 
	C759.780945,474.518524 758.649597,477.079651 759.968201,481.399353 
	C755.849487,484.547607 751.722656,487.339630 747.329468,490.388550 
	C745.988098,491.158783 744.913147,491.672119 743.283142,492.463684 
	C740.478394,493.531494 738.228760,494.321106 735.979065,495.110748 
	C730.914185,490.295044 731.439514,488.208862 738.955566,484.065826 
	C754.187805,476.999664 765.654602,466.246582 774.187256,452.249420 
	C774.619629,451.540192 774.927612,450.753021 775.380249,450.058685 
	C776.872253,447.770203 779.048218,445.804871 781.420959,447.988251 
	C782.789795,449.247833 783.794434,452.730042 783.021240,454.166992 
	C780.044861,459.698212 776.285095,464.807892 772.588440,470.421570 
z"/>
<path fill="#538A3C" opacity="1.000000" stroke="none" 
	d="
M1149.411133,131.578217 
	C1152.413086,130.330124 1155.147461,129.278656 1157.967041,128.562241 
	C1162.219238,127.481850 1163.348999,124.919754 1162.031738,120.600708 
	C1166.150269,117.452530 1170.277222,114.660568 1174.671143,111.612442 
	C1176.012573,110.842033 1177.086914,110.327789 1178.712891,109.533524 
	C1181.469849,108.602371 1183.675415,107.951233 1185.880859,107.300102 
	C1191.211182,111.174225 1190.559082,113.800453 1183.044434,117.934181 
	C1167.811523,124.999168 1156.347656,135.755768 1147.809692,149.747910 
	C1147.377075,150.456818 1147.072754,151.246216 1146.620239,151.940430 
	C1145.128418,154.228470 1142.952148,156.194244 1140.579468,154.011932 
	C1139.210449,152.752808 1138.205566,149.270355 1138.978638,147.833511 
	C1141.955078,142.302017 1145.714478,137.191971 1149.411133,131.578217 
z"/>
<path fill="#538A3C" opacity="1.000000" stroke="none" 
	d="
M189.411255,131.578232 
	C192.413147,130.330170 195.147568,129.278641 197.967117,128.562195 
	C202.219284,127.481743 203.348877,124.919624 202.031845,120.600632 
	C206.150574,117.452477 210.277374,114.660538 214.671173,111.612427 
	C216.012543,110.842056 217.086884,110.327858 218.712677,109.533646 
	C221.469742,108.602486 223.675339,107.951332 225.880936,107.300186 
	C231.211395,111.174294 230.559311,113.800354 223.044495,117.934181 
	C207.811462,124.999252 196.347275,135.755768 187.809433,149.748138 
	C187.376846,150.457077 187.072571,151.246460 186.620010,151.940674 
	C185.128235,154.229065 182.951523,156.193924 180.578964,154.011887 
	C179.210052,152.752914 178.205383,149.270416 178.978531,147.833496 
	C181.954803,142.302002 185.714386,137.191956 189.411255,131.578232 
z"/>
<path fill="#528A3B" opacity="1.000000" stroke="none" 
	d="
M170.430176,489.378784 
	C171.484375,491.799866 172.346466,493.945984 172.895447,496.169403 
	C173.967773,500.512634 176.432159,502.722565 181.462585,502.018524 
	C184.643982,506.088867 187.418854,510.156555 190.455017,514.475464 
	C190.960464,515.404419 191.204651,516.082092 191.745636,517.261597 
	C193.010361,520.509949 193.978256,523.256592 194.946167,526.003174 
	C190.472931,531.095093 188.447418,530.538879 184.220337,522.890015 
	C177.282806,507.776245 166.593445,496.518250 152.890732,487.962219 
	C152.046921,487.435333 150.725952,487.219971 150.347885,486.487579 
	C149.343140,484.541077 148.733017,482.390900 147.965942,480.321716 
	C150.119400,479.754364 152.898239,478.045227 154.315735,478.821625 
	C159.811066,481.831543 164.873154,485.632416 170.430176,489.378784 
z"/>
<path fill="#528A3B" opacity="1.000000" stroke="none" 
	d="
M1130.428711,489.378052 
	C1131.483032,491.799896 1132.346436,493.945831 1132.895386,496.169434 
	C1133.967896,500.513489 1136.433105,502.722076 1141.463379,502.018341 
	C1144.644531,506.088715 1147.419189,510.156464 1150.455078,514.475464 
	C1150.960571,515.404358 1151.204712,516.082031 1151.745605,517.261597 
	C1153.010254,520.510010 1153.978149,523.256592 1154.946045,526.003174 
	C1150.534180,531.025574 1148.398315,530.439087 1144.220459,522.890015 
	C1137.282959,507.776672 1126.594360,496.518433 1112.891724,487.962677 
	C1112.047974,487.435883 1110.727173,487.220551 1110.348877,486.488159 
	C1109.343750,484.541840 1108.732910,482.391846 1107.965332,480.322815 
	C1110.118652,479.754883 1112.897217,478.044922 1114.314453,478.821075 
	C1119.809937,481.830536 1124.872070,485.631165 1130.428711,489.378052 
z"/>
<path fill="#528A3B" opacity="1.000000" stroke="none" 
	d="
M1751.569824,112.621246 
	C1750.515503,110.200157 1749.653564,108.054001 1749.104492,105.830582 
	C1748.032227,101.487381 1745.567993,99.277214 1740.537476,99.981514 
	C1737.356079,95.911064 1734.581299,91.843239 1731.544922,87.524338 
	C1731.039429,86.595604 1730.795288,85.917969 1730.254395,84.738495 
	C1728.990356,81.490059 1728.023071,78.743454 1727.055908,75.996841 
	C1731.466797,70.969841 1733.599854,71.555740 1737.779541,79.110031 
	C1744.716553,94.222847 1755.405151,105.480209 1769.106689,114.036346 
	C1769.950439,114.563202 1771.271362,114.778320 1771.649536,115.510704 
	C1772.654663,117.456688 1773.264893,119.606529 1774.032227,121.675255 
	C1771.879028,122.243431 1769.100220,123.953842 1767.683350,123.177750 
	C1762.188354,120.168152 1757.126465,116.367447 1751.569824,112.621246 
z"/>
<path fill="#528A3B" opacity="1.000000" stroke="none" 
	d="
M791.569885,112.621140 
	C790.515686,110.200050 789.653442,108.053955 789.104492,105.830513 
	C788.032227,101.487228 785.567627,99.277657 780.537354,99.981506 
	C777.356079,95.911095 774.581299,91.843315 771.545166,87.524376 
	C771.039673,86.595558 770.795471,85.917900 770.254395,84.738426 
	C768.990295,81.490021 768.023132,78.743416 767.055908,75.996811 
	C771.466797,70.969955 773.600037,71.555908 777.779602,79.110107 
	C784.716553,94.222939 795.405212,105.480324 809.106689,114.036392 
	C809.950378,114.563240 811.271301,114.778366 811.649475,115.510704 
	C812.654480,117.456734 813.264954,119.606522 814.032288,121.675262 
	C811.879089,122.243439 809.100342,123.953773 807.683350,123.177704 
	C802.188293,120.168068 797.126587,116.367371 791.569885,112.621140 
z"/>
<path fill="#51893A" opacity="1.000000" stroke="none" 
	d="
M971.066284,212.425018 
	C969.909424,215.537186 968.958435,218.367233 967.481018,220.888824 
	C965.252869,224.691727 966.225586,227.377899 969.924072,229.847748 
	C969.304016,234.832916 968.477661,239.529068 967.561768,244.638336 
	C967.161804,246.113480 966.851440,247.175522 966.320068,248.844879 
	C964.578552,251.893921 963.057983,254.335663 961.537415,256.777405 
	C955.486328,255.500580 955.041260,254.482178 957.281128,246.460052 
	C963.003601,230.328995 963.602905,214.373718 959.389526,198.235855 
	C958.593933,195.188477 957.700928,192.080750 961.701294,190.861740 
	C965.911194,189.578873 967.318787,192.640457 968.013245,195.923431 
	C969.141663,201.258362 970.040649,206.641830 971.066284,212.425018 
z"/>
<path fill="#518A3A" opacity="1.000000" stroke="none" 
	d="
M490.987000,212.540558 
	C489.923309,215.507324 489.078247,218.196838 487.661469,220.540833 
	C485.329346,224.399246 485.976532,227.280548 489.955322,229.880463 
	C489.294647,234.855865 488.425568,239.539520 487.505096,244.647705 
	C487.262177,245.789108 487.070648,246.505966 486.609070,247.765366 
	C484.741241,251.131470 483.143494,253.955017 481.545746,256.778564 
	C475.548340,255.503754 475.006897,254.252228 477.328918,246.442657 
	C482.671570,231.143799 483.608276,215.998779 480.013672,200.596405 
	C479.712677,199.306717 478.838165,197.903488 479.122223,196.778229 
	C479.649536,194.689407 480.319794,191.860352 481.864807,190.981003 
	C484.378754,189.550201 486.757477,191.288269 487.392578,194.136765 
	C488.721039,200.095322 489.779449,206.114090 490.987000,212.540558 
z"/>
<path fill="#518A3A" opacity="1.000000" stroke="none" 
	d="
M1450.986938,212.540543 
	C1449.923218,215.507492 1449.078369,218.197281 1447.661255,220.541290 
	C1445.328369,224.400467 1445.977905,227.281372 1449.956055,229.881363 
	C1449.295044,234.856583 1448.425781,239.539886 1447.505127,244.647720 
	C1447.262207,245.789062 1447.070679,246.505875 1446.609131,247.765213 
	C1444.741333,251.131287 1443.143433,253.954834 1441.545654,256.778381 
	C1435.548218,255.503708 1435.006836,254.252197 1437.328857,246.442627 
	C1442.671387,231.143692 1443.608521,215.998611 1440.013428,200.596237 
	C1439.712402,199.306549 1438.833618,197.903519 1439.117798,196.779297 
	C1439.645996,194.689880 1440.318359,191.861191 1441.864624,190.980972 
	C1444.378418,189.550018 1446.757202,191.288147 1447.392334,194.136719 
	C1448.720825,200.095276 1449.779419,206.114029 1450.986938,212.540543 
z"/>
<path fill="#F98764" opacity="1.000000" stroke="none" 
	d="
M225.887634,106.898148 
	C223.675339,107.951332 221.469742,108.602486 218.942795,109.326279 
	C216.747498,103.717209 213.852844,98.153831 213.177979,92.333084 
	C210.398438,68.359283 220.133102,48.935974 236.957413,32.740917 
	C242.524872,27.381674 249.148926,23.115147 255.326935,18.397511 
	C257.869965,16.455582 260.613464,16.691563 262.314087,19.223663 
	C264.083832,21.858698 262.841217,24.204191 260.205658,25.910004 
	C249.547348,32.808426 240.147720,41.022419 232.702652,51.448635 
	C221.418732,67.250885 218.643661,84.242760 224.776337,102.680008 
	C225.194412,103.936943 225.523743,105.223389 225.887634,106.898148 
z"/>
<path fill="#F98764" opacity="1.000000" stroke="none" 
	d="
M356.002441,59.011112 
	C358.351410,77.713310 353.107880,93.775192 341.932983,108.102707 
	C340.609833,109.799141 339.306793,111.755241 337.527496,112.781105 
	C335.859222,113.742989 332.962952,114.596252 331.683105,113.789742 
	C329.022430,112.113113 329.804352,109.564659 331.469849,106.907486 
	C336.110565,99.503456 341.119568,92.190224 344.611176,84.238686 
	C349.905426,72.181931 347.834961,59.600216 344.878235,47.232285 
	C344.609039,46.106144 343.818085,44.827747 344.121765,43.898682 
	C344.775909,41.897366 345.985260,40.077541 346.967407,38.183449 
	C348.741302,39.337219 351.597565,40.146889 352.093567,41.706936 
	C353.834961,47.184292 354.764313,52.919842 356.002441,59.011112 
z"/>
<path fill="#F98764" opacity="1.000000" stroke="none" 
	d="
M1185.887695,106.898094 
	C1183.675415,107.951233 1181.469849,108.602371 1178.942993,109.326172 
	C1176.747681,103.717186 1173.852661,98.153847 1173.178345,92.333229 
	C1170.400879,68.360359 1180.131470,48.935619 1196.957520,32.741211 
	C1202.525391,27.382399 1209.148926,23.115383 1215.326782,18.397648 
	C1217.869751,16.455679 1220.613281,16.691290 1222.313843,19.223671 
	C1224.083496,21.858578 1222.841431,24.204060 1220.205566,25.910059 
	C1209.547241,32.808407 1200.147705,41.022457 1192.702637,51.448654 
	C1181.418701,67.250900 1178.643921,84.242828 1184.776123,102.680061 
	C1185.194214,103.936989 1185.523682,105.223396 1185.887695,106.898094 
z"/>
<path fill="#F98764" opacity="1.000000" stroke="none" 
	d="
M1315.696533,54.579727 
	C1316.994263,66.261032 1317.081177,77.446754 1313.047485,88.260941 
	C1309.588379,97.534409 1304.811401,106.059166 1297.474731,112.814690 
	C1296.210693,113.978592 1292.933838,114.586159 1291.661133,113.771805 
	C1289.010986,112.076004 1289.439697,109.303650 1291.563721,106.928543 
	C1297.739380,100.022850 1302.041382,92.082153 1305.099121,83.334061 
	C1309.339722,71.201782 1307.665771,59.220947 1304.873901,47.192642 
	C1304.575195,45.905750 1303.774536,44.452599 1304.117310,43.362820 
	C1304.698730,41.513580 1306.005615,39.892429 1307.007812,38.175453 
	C1308.702881,39.194122 1311.323730,39.838242 1311.916260,41.302898 
	C1313.576782,45.407867 1314.400024,49.851517 1315.696533,54.579727 
z"/>
<path fill="#F98764" opacity="1.000000" stroke="none" 
	d="
M1696.033691,495.478210 
	C1698.228760,494.321136 1700.478516,493.531525 1703.052734,492.670776 
	C1705.251587,498.286224 1708.143311,503.854279 1708.821777,509.680115 
	C1711.592407,533.471497 1701.997681,552.814941 1685.344727,568.949097 
	C1679.673096,574.444092 1672.909424,578.818237 1666.598022,583.643616 
	C1664.034546,585.603455 1661.269897,585.253296 1659.632568,582.705933 
	C1657.927734,580.053711 1659.224243,577.728088 1661.878784,576.041138 
	C1672.044434,569.580750 1681.036743,561.769592 1688.274414,552.104065 
	C1701.215332,534.821960 1703.838013,516.036621 1696.033691,495.478210 
z"/>
<path fill="#F98764" opacity="1.000000" stroke="none" 
	d="
M1588.834473,487.133484 
	C1592.947144,489.563873 1592.873047,492.258026 1590.116821,495.412476 
	C1580.549438,506.361481 1574.706909,519.108643 1574.241577,533.615784 
	C1574.012939,540.748108 1576.120728,547.957764 1577.205200,555.127319 
	C1577.377075,556.263733 1578.240234,557.575562 1577.892578,558.453430 
	C1577.128174,560.383545 1575.793823,562.087891 1574.692261,563.884338 
	C1573.056519,562.757385 1570.559326,561.971863 1569.951294,560.437561 
	C1568.322021,556.326599 1567.107300,551.956238 1566.427368,547.580200 
	C1562.999634,525.517822 1568.352783,505.990997 1583.930542,489.652740 
	C1585.081299,488.445953 1586.933350,487.907806 1588.834473,487.133484 
z"/>
<path fill="#F98764" opacity="1.000000" stroke="none" 
	d="
M736.033630,495.478210 
	C738.228760,494.321106 740.478394,493.531494 743.052734,492.670715 
	C745.251709,498.286133 748.144348,503.854218 748.822205,509.680023 
	C751.590576,533.470520 741.998596,552.815308 725.344910,568.949219 
	C719.673096,574.444031 712.909424,578.818115 706.598206,583.643555 
	C704.034607,585.603638 701.269897,585.253113 699.632568,582.706116 
	C697.927612,580.054016 699.223938,577.728271 701.878601,576.041321 
	C712.044434,569.581055 721.036438,561.769592 728.274170,552.104187 
	C741.215515,534.822083 743.837952,516.036682 736.033630,495.478210 
z"/>
<path fill="#F98764" opacity="1.000000" stroke="none" 
	d="
M622.653381,505.721191 
	C617.634399,514.331116 614.349670,523.324280 614.279724,532.825562 
	C614.224609,540.321106 616.173462,547.833191 617.264282,555.333252 
	C617.405945,556.307007 618.183777,557.421692 617.896606,558.179077 
	C617.149658,560.149170 615.973938,561.956787 614.969238,563.829163 
	C613.208801,562.655884 610.458862,561.843933 609.873718,560.241516 
	C608.130493,555.467285 606.767822,550.445251 606.095459,545.408020 
	C603.550598,526.342957 607.934692,509.024475 620.069580,493.889221 
	C621.517395,492.083466 622.931152,490.039398 624.831970,488.875641 
	C626.319458,487.964905 628.537048,488.246582 630.430237,487.998474 
	C630.557678,490.217041 631.544983,492.906372 630.639954,494.559814 
	C628.518127,498.436005 625.490234,501.816223 622.653381,505.721191 
z"/>
<path fill="#F98764" opacity="1.000000" stroke="none" 
	d="
M766.680054,76.035492 
	C768.023132,78.743416 768.990295,81.490021 770.021790,84.591492 
	C763.302002,86.317810 756.526306,87.732674 749.731750,89.050270 
	C740.131226,90.912010 730.875000,88.893204 722.106567,85.405640 
	C702.861816,77.751183 689.054810,63.617737 678.175659,46.441479 
	C677.283020,45.032143 677.586670,41.774143 678.660034,40.448799 
	C680.599182,38.054726 683.019836,39.139164 684.925354,41.382496 
	C691.036011,48.576351 696.985535,55.925983 703.417297,62.823845 
	C713.969543,74.140762 727.393250,80.364136 742.657166,80.668495 
	C750.505859,80.824997 758.419800,77.710533 766.680054,76.035492 
z"/>
<path fill="#F98764" opacity="1.000000" stroke="none" 
	d="
M1726.680054,76.035515 
	C1728.023071,78.743454 1728.990356,81.490059 1730.021851,84.591537 
	C1723.301880,86.317856 1716.526123,87.732376 1709.731689,89.050362 
	C1700.130859,90.912712 1690.874756,88.893120 1682.106445,85.405640 
	C1662.861572,77.751297 1649.054565,63.617825 1638.175659,46.441486 
	C1637.282959,45.032127 1637.586548,41.774052 1638.659912,40.448799 
	C1640.598877,38.054996 1643.019897,39.138973 1644.925415,41.382359 
	C1651.036133,48.576176 1656.985596,55.925896 1663.417480,62.823658 
	C1673.969604,74.140419 1687.393066,80.364418 1702.657104,80.668533 
	C1710.505859,80.824921 1718.419800,77.710533 1726.680054,76.035515 
z"/>
<path fill="#F98764" opacity="1.000000" stroke="none" 
	d="
M195.321777,525.964233 
	C193.978256,523.256592 193.010361,520.509949 191.978210,517.408447 
	C198.697983,515.682190 205.473648,514.267517 212.268066,512.949585 
	C221.868729,511.087372 231.124832,513.106628 239.893219,516.594177 
	C259.137726,524.248535 272.944794,538.381592 283.823792,555.557739 
	C284.716614,556.967346 284.413971,560.225159 283.340820,561.550598 
	C281.402557,563.944458 278.981415,562.862183 277.075470,560.618286 
	C270.964935,553.424438 265.015686,546.074646 258.583618,539.177124 
	C248.031296,527.861206 234.609039,521.634766 219.344498,521.331543 
	C211.495651,521.175598 203.581833,524.289246 195.321777,525.964233 
z"/>
<path fill="#F98764" opacity="1.000000" stroke="none" 
	d="
M1155.321533,525.964233 
	C1153.978149,523.256592 1153.010254,520.510010 1151.978149,517.408508 
	C1158.697998,515.682190 1165.473755,514.267761 1172.268066,512.949646 
	C1181.868896,511.087189 1191.125000,513.106567 1199.893311,516.594116 
	C1219.137573,524.248474 1232.945190,538.381165 1243.823730,555.557739 
	C1244.716553,556.967407 1244.414185,560.225464 1243.340942,561.550720 
	C1241.402588,563.944397 1238.981445,562.862122 1237.075439,560.618225 
	C1230.964844,553.424255 1225.015503,546.074524 1218.583496,539.176941 
	C1208.031128,527.860901 1194.608887,521.634705 1179.344360,521.331360 
	C1171.495483,521.175354 1163.581665,524.289062 1155.321533,525.964233 
z"/>
<path fill="#F98764" opacity="1.000000" stroke="none" 
	d="
M1859.239136,363.718811 
	C1865.359497,372.571259 1873.701660,378.213043 1882.546143,383.238770 
	C1885.089233,384.683807 1887.837524,386.100677 1886.083252,389.664398 
	C1884.270264,393.347168 1881.034302,392.500854 1878.356445,391.086334 
	C1859.774292,381.270844 1846.510376,366.985229 1841.588379,346.040955 
	C1840.423340,341.083649 1839.604980,335.975403 1839.394165,330.904663 
	C1839.328735,329.333038 1841.647827,326.546143 1843.145264,326.347046 
	C1844.573975,326.157104 1847.353760,328.336945 1847.802002,329.956177 
	C1849.467773,335.972931 1849.887939,342.358459 1851.793945,348.277710 
	C1853.495361,353.561829 1856.540649,358.413239 1859.239136,363.718811 
z"/>
<path fill="#F98764" opacity="1.000000" stroke="none" 
	d="
M3.182809,256.280670 
	C4.017805,253.819519 5.057499,251.633408 6.259953,249.176056 
	C23.469770,254.844559 35.060455,266.677795 41.789490,283.060547 
	C49.370758,301.518219 48.112343,320.708099 44.827206,339.864014 
	C44.371132,342.523407 42.592964,345.022644 39.706264,343.737976 
	C38.006821,342.981659 36.099709,340.102448 36.220772,338.308594 
	C36.663692,331.745605 38.554806,325.256134 38.747799,318.705017 
	C39.317020,299.382935 35.679379,281.234924 20.282440,267.773804 
	C15.237613,263.363251 9.051631,260.257904 3.182809,256.280670 
z"/>
<path fill="#F98764" opacity="1.000000" stroke="none" 
	d="
M961.951416,256.841034 
	C963.057983,254.335663 964.578552,251.893921 966.263428,249.178619 
	C983.655151,254.962387 995.252502,266.934875 1001.964417,283.611115 
	C1009.302368,301.843140 1008.039734,320.688568 1004.883667,339.540009 
	C1004.447510,342.144958 1003.233215,344.403900 999.933105,343.950562 
	C996.494141,343.478149 995.669189,341.055481 996.058533,338.105225 
	C996.901306,331.720032 998.501526,325.374695 998.712280,318.977478 
	C999.349976,299.624756 995.824829,281.372314 980.405579,267.920227 
	C975.172058,263.354431 968.422363,260.526672 961.951416,256.841034 
z"/>
<path fill="#F98764" opacity="1.000000" stroke="none" 
	d="
M909.386719,385.662170 
	C891.225891,373.084076 881.363037,356.175720 879.917786,334.384003 
	C879.691162,330.966675 877.866150,326.935333 883.029114,326.141113 
	C888.314087,325.328156 888.096313,330.058472 888.496948,333.238098 
	C889.709595,342.861389 891.835999,352.130524 896.998901,360.494324 
	C903.285828,370.679108 912.394836,377.685394 922.706848,383.331512 
	C925.323547,384.764191 927.877197,386.347351 926.000122,389.828186 
	C924.054138,393.436646 920.892334,392.330414 918.190308,390.999695 
	C915.231079,389.542328 912.514954,387.591339 909.386719,385.662170 
z"/>
<path fill="#F98764" opacity="1.000000" stroke="none" 
	d="
M1441.964355,256.843109 
	C1443.143433,253.954834 1444.741333,251.131287 1446.584717,248.047714 
	C1451.728638,250.853653 1456.760620,253.727325 1461.499878,257.021881 
	C1475.402710,266.686371 1482.547363,280.651154 1485.923096,296.772552 
	C1488.920776,311.087921 1487.479370,325.377930 1484.880981,339.588837 
	C1484.402710,342.203827 1483.169678,344.427063 1479.887207,343.947449 
	C1476.454468,343.445923 1475.669922,341.001617 1476.059937,338.062347 
	C1476.906738,331.680267 1478.511963,325.336639 1478.714111,318.942749 
	C1479.325684,299.590637 1475.756592,281.347473 1460.362549,267.890320 
	C1455.151489,263.334900 1448.419800,260.518829 1441.964355,256.843109 
z"/>
<path fill="#F98764" opacity="1.000000" stroke="none" 
	d="
M1396.301514,389.843842 
	C1375.855469,378.929718 1364.171509,362.120605 1360.203247,339.842041 
	C1359.684448,336.929657 1359.690308,333.809906 1360.123047,330.885315 
	C1360.376587,329.170593 1361.954712,327.651825 1362.937012,326.044922 
	C1364.623047,327.448456 1367.300903,328.556427 1367.822632,330.307007 
	C1370.031128,337.717499 1370.996460,345.529327 1373.536377,352.803375 
	C1377.746948,364.862488 1386.478516,373.426910 1397.185913,380.066620 
	C1399.019409,381.203583 1401.213623,381.958862 1402.671753,383.448120 
	C1404.326660,385.138458 1406.806274,387.910187 1406.341064,389.409515 
	C1405.241333,392.955078 1401.755493,392.434601 1398.753052,391.317505 
	C1397.987305,391.032654 1397.314453,390.498627 1396.301514,389.843842 
z"/>
<path fill="#F98764" opacity="1.000000" stroke="none" 
	d="
M481.964417,256.843231 
	C483.143494,253.955017 484.741241,251.131470 486.584564,248.047882 
	C491.728516,250.853760 496.760590,253.727280 501.500031,257.021851 
	C515.402893,266.686340 522.547363,280.651184 525.923157,296.772583 
	C528.920715,311.087891 527.479797,325.377747 524.880188,339.588470 
	C524.401855,342.203278 523.170349,344.427338 519.887146,343.947449 
	C516.454468,343.445740 515.669861,341.001129 516.059692,338.062225 
	C516.906311,331.680084 518.511475,325.336517 518.713806,318.942596 
	C519.326233,299.590302 515.756165,281.347687 500.362549,267.890472 
	C495.151550,263.334930 488.419830,260.518890 481.964417,256.843231 
z"/>
<path fill="#F98764" opacity="1.000000" stroke="none" 
	d="
M416.620789,359.344147 
	C422.743652,370.378510 432.040863,377.439026 442.500397,383.202667 
	C445.118256,384.645203 447.911255,386.414398 446.396423,389.607025 
	C444.675110,393.234894 441.086700,392.596771 438.132355,391.003876 
	C422.621002,382.640656 410.036133,371.287628 404.283417,354.190155 
	C401.843353,346.938080 401.248016,339.044922 400.055573,331.405457 
	C399.678528,328.989716 399.640076,325.622284 403.349792,326.236450 
	C405.104858,326.526978 407.318756,328.891235 407.872864,330.748993 
	C410.226196,338.639587 411.972473,346.709229 414.098328,354.671356 
	C414.512177,356.221344 415.629852,357.583435 416.620789,359.344147 
z"/>
</svg>